<svg
  width="600"
  height="900"
  viewBox="0 0 600 900"
  fill="none"
  xmlns="http://www.w3.org/2000/svg"
>
  <rect width="600" height="900" fill="white" />
  <path
    d="M227.969 410.141V440H225.426L208.261 414.488V440H205.738V410.141H208.261L225.467 435.652V410.141H227.969ZM257.644 423.471V426.67C257.644 428.762 257.37 430.655 256.823 432.351C256.29 434.032 255.511 435.475 254.485 436.678C253.474 437.881 252.257 438.804 250.835 439.446C249.413 440.089 247.813 440.41 246.036 440.41C244.3 440.41 242.714 440.089 241.278 439.446C239.856 438.804 238.633 437.881 237.607 436.678C236.582 435.475 235.789 434.032 235.229 432.351C234.668 430.655 234.388 428.762 234.388 426.67V423.471C234.388 421.379 234.661 419.492 235.208 417.811C235.769 416.115 236.562 414.666 237.587 413.463C238.612 412.26 239.836 411.337 241.258 410.694C242.68 410.052 244.259 409.73 245.995 409.73C247.772 409.73 249.372 410.052 250.794 410.694C252.216 411.337 253.439 412.26 254.465 413.463C255.49 414.666 256.276 416.115 256.823 417.811C257.37 419.492 257.644 421.379 257.644 423.471ZM255.142 426.67V423.43C255.142 421.666 254.937 420.08 254.526 418.672C254.13 417.264 253.535 416.061 252.742 415.062C251.963 414.064 251.006 413.299 249.871 412.766C248.736 412.232 247.444 411.966 245.995 411.966C244.587 411.966 243.322 412.232 242.201 412.766C241.08 413.299 240.123 414.064 239.33 415.062C238.551 416.061 237.949 417.264 237.525 418.672C237.115 420.08 236.91 421.666 236.91 423.43V426.67C236.91 428.447 237.115 430.047 237.525 431.469C237.949 432.877 238.558 434.087 239.351 435.099C240.144 436.097 241.101 436.862 242.222 437.396C243.356 437.929 244.628 438.195 246.036 438.195C247.499 438.195 248.791 437.929 249.912 437.396C251.033 436.862 251.983 436.097 252.763 435.099C253.542 434.087 254.13 432.877 254.526 431.469C254.937 430.047 255.142 428.447 255.142 426.67ZM277.352 410.141V440H274.829V410.141H277.352ZM286.252 410.141H288.795L299.828 436.432L310.882 410.141H313.404L300.792 440H298.864L286.252 410.141ZM285.473 410.141H287.708L287.975 426.957V440H285.473V410.141ZM311.989 410.141H314.225V440H311.702V426.957L311.989 410.141ZM331.984 411.925L321.648 440H319.023L330.303 410.141H332.128L331.984 411.925ZM341.377 440L331.021 411.925L330.877 410.141H332.702L344.002 440H341.377ZM339.531 429.459V431.633H323.679V429.459H339.531ZM369.719 425.809V436.432C369.377 436.938 368.789 437.498 367.955 438.113C367.121 438.729 366 439.269 364.592 439.733C363.184 440.185 361.434 440.41 359.342 440.41C357.592 440.41 355.985 440.096 354.522 439.467C353.06 438.838 351.788 437.929 350.708 436.739C349.642 435.536 348.814 434.094 348.227 432.412C347.652 430.73 347.365 428.844 347.365 426.752V423.143C347.365 421.092 347.632 419.246 348.165 417.605C348.698 415.951 349.471 414.536 350.482 413.36C351.494 412.185 352.711 411.289 354.133 410.674C355.568 410.045 357.175 409.73 358.952 409.73C361.167 409.73 363.033 410.113 364.551 410.879C366.068 411.645 367.251 412.697 368.099 414.037C368.96 415.363 369.493 416.867 369.698 418.549H367.176C366.984 417.359 366.588 416.266 365.986 415.268C365.385 414.256 364.51 413.442 363.361 412.827C362.227 412.212 360.757 411.904 358.952 411.904C357.503 411.904 356.211 412.171 355.076 412.704C353.955 413.237 353.012 413.996 352.246 414.98C351.48 415.965 350.899 417.147 350.503 418.528C350.106 419.896 349.908 421.42 349.908 423.102V426.752C349.908 428.502 350.127 430.081 350.564 431.489C351.016 432.897 351.658 434.107 352.492 435.119C353.326 436.131 354.324 436.91 355.486 437.457C356.648 437.99 357.94 438.257 359.362 438.257C360.88 438.257 362.172 438.113 363.238 437.826C364.305 437.539 365.159 437.197 365.802 436.801C366.458 436.391 366.93 436.008 367.217 435.652V427.962H359.198V425.809H369.719ZM395.497 437.847V440H378.701V437.847H395.497ZM379.46 410.141V440H376.938V410.141H379.46ZM393.405 423.532V425.686H378.701V423.532H393.405ZM395.395 410.141V412.314H378.701V410.141H395.395ZM209.655 460.925L199.319 489H196.694L207.974 459.141H209.799L209.655 460.925ZM219.048 489L208.691 460.925L208.548 459.141H210.373L221.673 489H219.048ZM217.202 478.459V480.633H201.35V478.459H217.202ZM233.629 485.288L243.042 459.141H245.79L234.675 489H232.645L233.629 485.288ZM223.908 459.141L233.28 485.288L234.306 489H232.255L221.16 459.141H223.908ZM258.464 460.925L248.128 489H245.503L256.782 459.141H258.607L258.464 460.925ZM267.856 489L257.5 460.925L257.356 459.141H259.182L270.481 489H267.856ZM266.011 478.459V480.633H250.158V478.459H266.011ZM277.987 459.141V489H275.465V459.141H277.987ZM303.376 486.847V489H287.893V486.847H303.376ZM288.631 459.141V489H286.108V459.141H288.631ZM318.47 460.925L308.134 489H305.509L316.788 459.141H318.613L318.47 460.925ZM327.862 489L317.506 460.925L317.362 459.141H319.188L330.487 489H327.862ZM326.017 478.459V480.633H310.164V478.459H326.017ZM345.191 474.645H336.783L336.742 472.512H343.981C345.458 472.512 346.716 472.3 347.755 471.876C348.794 471.452 349.58 470.823 350.113 469.989C350.66 469.142 350.934 468.103 350.934 466.872C350.934 465.614 350.667 464.575 350.134 463.755C349.601 462.921 348.801 462.306 347.734 461.909C346.668 461.513 345.328 461.314 343.715 461.314H337.439V489H334.917V459.141H343.715C345.232 459.141 346.593 459.291 347.796 459.592C348.999 459.893 350.024 460.364 350.872 461.007C351.72 461.649 352.362 462.463 352.8 463.447C353.251 464.418 353.477 465.58 353.477 466.934C353.477 468.164 353.203 469.278 352.656 470.276C352.109 471.261 351.337 472.067 350.339 472.696C349.354 473.312 348.172 473.694 346.791 473.845L345.191 474.645ZM345.007 489H335.983L337.275 486.847H345.007C346.483 486.847 347.741 486.601 348.78 486.108C349.833 485.603 350.64 484.885 351.2 483.955C351.761 483.025 352.041 481.918 352.041 480.633C352.041 479.498 351.795 478.479 351.303 477.577C350.811 476.675 350.059 475.964 349.047 475.444C348.035 474.911 346.75 474.645 345.191 474.645H339.962L340.003 472.512H347.406L347.857 473.271C349.197 473.407 350.366 473.824 351.364 474.521C352.376 475.205 353.155 476.073 353.702 477.126C354.263 478.179 354.543 479.334 354.543 480.592C354.543 482.396 354.14 483.928 353.333 485.186C352.54 486.43 351.426 487.38 349.99 488.036C348.568 488.679 346.907 489 345.007 489ZM377.942 486.847V489H362.459V486.847H377.942ZM363.197 459.141V489H360.675V459.141H363.197ZM401.383 486.847V489H384.587V486.847H401.383ZM385.346 459.141V489H382.823V459.141H385.346ZM399.291 472.532V474.686H384.587V472.532H399.291ZM401.28 459.141V461.314H384.587V459.141H401.28Z"
    fill="black"
  />
</svg>
