<svg
  width="600"
  height="900"
  viewBox="0 0 600 900"
  fill="none"
  version="1.1" xmlns="http://www.w3.org/2000/svg"
>
  <rect width="600" height="900" fill="white" />
  <path
    d="M195.609 391.633V435H191.916L166.986 397.947V435H163.322V391.633H166.986L191.976 428.686V391.633H195.609ZM238.708 410.993V415.64C238.708 418.678 238.311 421.428 237.517 423.89C236.743 426.333 235.611 428.427 234.122 430.175C232.652 431.922 230.885 433.263 228.82 434.196C226.755 435.129 224.431 435.596 221.85 435.596C219.328 435.596 217.025 435.129 214.94 434.196C212.875 433.263 211.098 431.922 209.608 430.175C208.119 428.427 206.967 426.333 206.153 423.89C205.339 421.428 204.932 418.678 204.932 415.64V410.993C204.932 407.955 205.329 405.215 206.124 402.772C206.938 400.31 208.089 398.205 209.579 396.458C211.068 394.711 212.845 393.37 214.91 392.437C216.975 391.504 219.269 391.037 221.791 391.037C224.372 391.037 226.695 391.504 228.76 392.437C230.825 393.37 232.603 394.711 234.092 396.458C235.581 398.205 236.723 400.31 237.517 402.772C238.311 405.215 238.708 407.955 238.708 410.993ZM235.075 415.64V410.934C235.075 408.372 234.777 406.069 234.181 404.023C233.605 401.978 232.742 400.231 231.59 398.781C230.458 397.332 229.068 396.22 227.42 395.445C225.772 394.671 223.895 394.284 221.791 394.284C219.745 394.284 217.909 394.671 216.28 395.445C214.652 396.22 213.262 397.332 212.11 398.781C210.979 400.231 210.105 401.978 209.489 404.023C208.894 406.069 208.596 408.372 208.596 410.934V415.64C208.596 418.221 208.894 420.544 209.489 422.609C210.105 424.655 210.988 426.412 212.14 427.881C213.292 429.331 214.682 430.443 216.31 431.217C217.958 431.992 219.805 432.379 221.85 432.379C223.975 432.379 225.851 431.992 227.479 431.217C229.108 430.443 230.488 429.331 231.62 427.881C232.751 426.412 233.605 424.655 234.181 422.609C234.777 420.544 235.075 418.221 235.075 415.64ZM267.332 391.633V435H263.668V391.633H267.332ZM280.259 391.633H283.952L299.977 429.817L316.031 391.633H319.694L301.376 435H298.577L280.259 391.633ZM279.127 391.633H282.374L282.761 416.057V435H279.127V391.633ZM317.639 391.633H320.886V435H317.222V416.057L317.639 391.633ZM346.68 394.224L331.668 435H327.855L344.237 391.633H346.888L346.68 394.224ZM360.321 435L345.28 394.224L345.071 391.633H347.722L364.134 435H360.321ZM357.641 419.69V422.848H334.617V419.69H357.641ZM401.484 414.389V429.817C400.988 430.552 400.134 431.366 398.923 432.26C397.712 433.153 396.083 433.938 394.038 434.613C391.993 435.268 389.451 435.596 386.413 435.596C383.871 435.596 381.538 435.139 379.414 434.226C377.289 433.312 375.442 431.992 373.874 430.264C372.325 428.517 371.123 426.422 370.27 423.979C369.436 421.537 369.019 418.797 369.019 415.759V410.517C369.019 407.538 369.406 404.857 370.18 402.475C370.955 400.072 372.076 398.017 373.546 396.309C375.015 394.601 376.783 393.301 378.848 392.407C380.933 391.494 383.266 391.037 385.847 391.037C389.064 391.037 391.774 391.593 393.979 392.705C396.183 393.817 397.9 395.346 399.131 397.292C400.382 399.218 401.157 401.402 401.455 403.845H397.791C397.513 402.117 396.937 400.529 396.063 399.079C395.19 397.61 393.919 396.428 392.251 395.535C390.603 394.641 388.468 394.194 385.847 394.194C383.742 394.194 381.866 394.582 380.218 395.356C378.59 396.13 377.219 397.232 376.107 398.662C374.995 400.092 374.152 401.809 373.576 403.815C373 405.801 372.712 408.015 372.712 410.457V415.759C372.712 418.3 373.03 420.594 373.665 422.639C374.32 424.684 375.254 426.442 376.465 427.911C377.676 429.381 379.126 430.512 380.813 431.307C382.501 432.081 384.378 432.468 386.443 432.468C388.647 432.468 390.523 432.26 392.072 431.843C393.621 431.426 394.862 430.929 395.795 430.354C396.749 429.758 397.434 429.202 397.851 428.686V417.516H386.205V414.389H401.484ZM438.924 431.873V435H414.53V431.873H438.924ZM415.632 391.633V435H411.969V391.633H415.632ZM435.886 411.083V414.21H414.53V411.083H435.886ZM438.775 391.633V394.79H414.53V391.633H438.775ZM169.011 465.224L154 506H150.187L166.569 462.633H169.22L169.011 465.224ZM182.653 506L167.611 465.224L167.403 462.633H170.054L186.465 506H182.653ZM179.972 490.69V493.848H156.948V490.69H179.972ZM203.83 500.609L217.501 462.633H221.493L205.349 506H202.4L203.83 500.609ZM189.712 462.633L203.324 500.609L204.813 506H201.834L185.721 462.633H189.712ZM239.9 465.224L224.888 506H221.076L237.458 462.633H240.108L239.9 465.224ZM253.542 506L238.5 465.224L238.292 462.633H240.942L257.354 506H253.542ZM250.861 490.69V493.848H227.837V490.69H250.861ZM268.255 462.633V506H264.592V462.633H268.255ZM305.129 502.873V506H282.642V502.873H305.129ZM283.714 462.633V506H280.05V462.633H283.714ZM327.051 465.224L312.04 506H308.227L324.609 462.633H327.26L327.051 465.224ZM340.693 506L325.651 465.224L325.443 462.633H328.094L344.505 506H340.693ZM338.012 490.69V493.848H314.988V490.69H338.012ZM365.861 485.15H353.649L353.59 482.053H364.104C366.249 482.053 368.075 481.745 369.584 481.129C371.094 480.514 372.235 479.6 373.01 478.389C373.804 477.158 374.201 475.649 374.201 473.862C374.201 472.035 373.814 470.526 373.04 469.334C372.265 468.123 371.104 467.23 369.555 466.654C368.006 466.078 366.06 465.79 363.717 465.79H354.603V506H350.939V462.633H363.717C365.921 462.633 367.897 462.851 369.644 463.288C371.391 463.725 372.881 464.41 374.112 465.343C375.343 466.277 376.276 467.458 376.912 468.888C377.567 470.298 377.895 471.985 377.895 473.951C377.895 475.738 377.497 477.357 376.703 478.806C375.909 480.236 374.787 481.407 373.337 482.321C371.908 483.214 370.19 483.77 368.185 483.989L365.861 485.15ZM365.593 506H352.488L354.364 502.873H365.593C367.738 502.873 369.565 502.515 371.074 501.8C372.603 501.066 373.774 500.023 374.588 498.673C375.403 497.323 375.81 495.714 375.81 493.848C375.81 492.2 375.452 490.72 374.737 489.41C374.022 488.099 372.93 487.067 371.461 486.312C369.992 485.538 368.125 485.15 365.861 485.15H358.266L358.326 482.053H369.078L369.733 483.155C371.679 483.353 373.377 483.959 374.827 484.972C376.296 485.965 377.428 487.225 378.222 488.754C379.036 490.283 379.443 491.961 379.443 493.788C379.443 496.409 378.858 498.633 377.686 500.46C376.534 502.267 374.916 503.647 372.831 504.6C370.766 505.533 368.353 506 365.593 506ZM413.428 502.873V506H390.94V502.873H413.428ZM392.013 462.633V506H388.349V462.633H392.013ZM447.473 502.873V506H423.079V502.873H447.473ZM424.181 462.633V506H420.517V462.633H424.181ZM444.435 482.083V485.21H423.079V482.083H444.435ZM447.324 462.633V465.79H423.079V462.633H447.324Z"
    fill="black"
  />
</svg>
