<!-- Generated by IcoMoon.io -->
<svg version="1.1" xmlns="http://www.w3.org/2000/svg" width="768" height="768" viewBox="0 0 768 768">
<title>accessibility</title>
<path d="M384 224c35.3 0 64-28.7 64-64s-28.7-64-64-64c-35.3 0-64 28.7-64 64s28.7 64 64 64zM384 128c17.6 0 32 14.4 32 32s-14.4 32-32 32c-17.6 0-32-14.4-32-32s14.4-32 32-32z"></path>
<path d="M586.1 254.4l-20.2-60.8-181.9 60.7-181.9-60.7-20.2 60.8 170.1 56.7v127.1l-130.5 191.8 53 36 109.5-161.1 109.5 161.1 53-36-130.5-191.8v-127.1z"></path>
<path d="M737.8 234.5c-19.3-45.7-47-86.8-82.3-122.1s-76.3-62.9-122.1-82.3c-47.3-19.9-97.6-30.1-149.4-30.1s-102.1 10.2-149.5 30.2c-45.7 19.3-86.8 47-122.1 82.3s-62.9 76.3-82.3 122.1c-19.9 47.3-30.1 97.6-30.1 149.4s10.2 102.1 30.2 149.5c19.3 45.7 47 86.8 82.3 122.1s76.3 62.9 122.1 82.3c47.4 20 97.6 30.2 149.5 30.2 51.8 0 102.1-10.2 149.5-30.2 45.7-19.3 86.8-47 122.1-82.3s62.9-76.3 82.3-122.1c20-47.4 30.2-97.6 30.2-149.5-0.2-51.8-10.4-102.1-30.4-149.5zM384 736c-194.1 0-352-157.9-352-352s157.9-352 352-352c194.1 0 352 157.9 352 352s-157.9 352-352 352z"></path>
</svg>
