<!-- Generated by IcoMoon.io -->
<svg version="1.1" xmlns="http://www.w3.org/2000/svg" width="768" height="768" viewBox="0 0 768 768">
<title></title>
<g id="icomoon-ignore">
</g>
<path d="M737.8 234.5c-19.3-45.7-47-86.8-82.3-122-35.3-35.3-76.3-62.9-122-82.3-47.4-20-97.7-30.2-149.5-30.2s-102.1 10.2-149.5 30.2c-45.7 19.3-86.8 47-122 82.3-35.3 35.3-62.9 76.3-82.3 122-20 47.4-30.2 97.7-30.2 149.5s10.2 102.1 30.2 149.5c19.3 45.7 47 86.8 82.3 122 35.3 35.3 76.3 62.9 122 82.3 47.4 20 97.7 30.2 149.5 30.2h160v-64h-160c-176.4 0-320-143.6-320-320s143.6-320 320-320c176.4 0 320 143.6 320 320v16c0 44.1-35.9 80-80 80s-80-35.9-80-80v-176h-64v32.1c-26.8-20.1-60-32.1-96-32.1-88.2 0-160 71.8-160 160s71.8 160 160 160c49.9 0 94.5-23 123.9-58.9 26.2 35.7 68.5 58.9 116.1 58.9 79.4 0 144-64.6 144-144v-16c0-51.8-10.2-102.1-30.2-149.5zM384 480c-52.9 0-96-43.1-96-96s43.1-96 96-96 96 43.1 96 96-43.1 96-96 96z"></path>
</svg>
