<!-- Generated by IcoMoon.io -->
<svg version="1.1" xmlns="http://www.w3.org/2000/svg" width="768" height="768" viewBox="0 0 768 768">
<title></title>
<g id="icomoon-ignore">
</g>
<path d="M751.5 453.5v0l-121.7-260.3c-0.1-0.2-0.2-0.4-0.3-0.7-13-27.7-36.7-48.5-64.7-58.3l-27.1-46.1c-0.1-0.1-0.2-0.3-0.3-0.4-8.6-14.6-24.5-23.7-41.4-23.7-26.5 0-48 21.5-48 48v49.7c-19.8 20.2-32 47.9-32 78.3v24.6c-9.4-5.5-20.4-8.6-32-8.6s-22.6 3.1-32 8.6v-24.6c0-30.4-12.2-58.1-32-78.3v-49.7c0-26.5-21.5-48-48-48-16.9 0-32.8 9.1-41.4 23.7-0.1 0.1-0.2 0.3-0.3 0.4l-27.1 46.1c-28.1 9.8-51.8 30.6-64.7 58.3-0.1 0.2-0.2 0.4-0.3 0.6l-121.7 260.4c-10.6 22.7-16.5 47.9-16.5 74.5 0 97 79 176 176 176 94.6 0 172-75 175.8-168.7 9.5 5.5 20.4 8.7 32.2 8.7 11.7 0 22.7-3.2 32.2-8.7 3.8 93.7 81.2 168.7 175.8 168.7 97 0 176-79 176-176 0-26.6-5.9-51.8-16.5-74.5zM636 357.6c-14.1-3.6-28.8-5.6-44-5.6-42.5 0-81.5 15.1-112 40.3v-152.3c0-26.5 21.5-48 48-48 18.4 0 35.3 10.7 43.3 27.2 0.1 0.2 0.2 0.3 0.2 0.5l64.5 137.9zM496 96c5.6 0 10.7 2.8 13.6 7.6 0.1 0.1 0.1 0.2 0.2 0.3l14.2 24.2c-15.7 0.6-30.6 4.4-44 10.7v-26.8c0-8.8 7.2-16 16-16zM384 288c17.6 0 32 14.4 32 32v104.6c-9.4-5.5-20.4-8.6-32-8.6s-22.6 3.1-32 8.6v-104.6c0-17.6 14.4-32 32-32zM258.4 103.6c2.9-4.8 8-7.6 13.6-7.6 8.8 0 16 7.2 16 16v26.8c-13.4-6.4-28.3-10.2-44-10.7l14.2-24.2c0.1-0.1 0.1-0.2 0.2-0.3zM196.5 219.7c0.1-0.2 0.1-0.3 0.2-0.5 8-16.5 24.9-27.2 43.3-27.2 26.5 0 48 21.5 48 48v152.3c-30.5-25.2-69.5-40.3-112-40.3-15.2 0-29.9 1.9-44 5.6l64.5-137.9zM176 640c-61.8 0-112-50.2-112-112s50.2-112 112-112 112 50.2 112 112-50.2 112-112 112zM384 512c-17.6 0-32-14.4-32-32s14.4-32 32-32c17.6 0 32 14.4 32 32s-14.4 32-32 32zM592 640c-61.8 0-112-50.2-112-112s50.2-112 112-112 112 50.2 112 112-50.2 112-112 112z"></path>
<path d="M128 528v-16h-32v16c0 44.1 35.9 80 80 80h16v-32h-16c-26.5 0-48-21.5-48-48z"></path>
<path d="M544 528v-16h-32v16c0 44.1 35.9 80 80 80h16v-32h-16c-26.5 0-48-21.5-48-48z"></path>
</svg>
