<!-- Generated by IcoMoon.io -->
<svg version="1.1" xmlns="http://www.w3.org/2000/svg" width="768" height="768" viewBox="0 0 768 768">
<title>branches2</title>
<path d="M704 517.5v-101.5c0-35.3-28.7-64-64-64h-224v-101.5c37.2-13.2 64-48.8 64-90.5 0-52.9-43.1-96-96-96s-96 43.1-96 96c0 41.7 26.8 77.3 64 90.5v101.5h-224c-35.3 0-64 28.7-64 64v101.5c-37.2 13.2-64 48.8-64 90.5 0 52.9 43.1 96 96 96s96-43.1 96-96c0-41.7-26.8-77.3-64-90.5v-101.5h224v101.5c-37.2 13.2-64 48.8-64 90.5 0 52.9 43.1 96 96 96s96-43.1 96-96c0-41.7-26.8-77.3-64-90.5v-101.5h224v101.5c-37.2 13.2-64 48.8-64 90.5 0 52.9 43.1 96 96 96s96-43.1 96-96c0-41.7-26.8-77.3-64-90.5zM320 160c0-35.3 28.7-64 64-64s64 28.7 64 64-28.7 64-64 64c-35.3 0-64-28.7-64-64zM160 608c0 35.3-28.7 64-64 64s-64-28.7-64-64 28.7-64 64-64 64 28.7 64 64zM448 608c0 35.3-28.7 64-64 64s-64-28.7-64-64 28.7-64 64-64c35.3 0 64 28.7 64 64zM672 672c-35.3 0-64-28.7-64-64s28.7-64 64-64 64 28.7 64 64-28.7 64-64 64z"></path>
</svg>
