<!-- Generated by IcoMoon.io -->
<svg version="1.1" xmlns="http://www.w3.org/2000/svg" width="768" height="768" viewBox="0 0 768 768">
<title>bricks</title>
<path d="M704 0h-640c-35.3 0-64 28.7-64 64v640c0 35.3 28.7 64 64 64h640c35.3 0 64-28.7 64-64v-640c0-35.3-28.7-64-64-64zM704 128h-128v-64h128v64zM320 128v-64h224v64h-224zM448 160v128h-256v-128h256zM320 448v-128h224v128h-224zM160 288h-96v-128h96v128zM288 320v128h-224v-128h224zM160 480v128h-96v-128h96zM192 480h256v128h-256v-128zM544 640v64h-224v-64h224zM480 608v-128h224v128h-224zM576 448v-128h128v128h-128zM480 288v-128h224v128h-224zM288 64v64h-224v-64h224zM64 640h224v64h-224v-64zM704 704h-128v-64h128.1l-0.1 64c0.1 0 0 0 0 0z"></path>
</svg>
