<!-- Generated by IcoMoon.io -->
<svg version="1.1" xmlns="http://www.w3.org/2000/svg" width="768" height="768" viewBox="0 0 768 768">
<title></title>
<g id="icomoon-ignore">
</g>
<path d="M0 32h160v64h-160v-64z"></path>
<path d="M288 32h192v64h-192v-64z"></path>
<path d="M608 32h160v64h-160v-64z"></path>
<path d="M192 0h64v224h-64v-224z"></path>
<path d="M512 0h64v224h-64v-224z"></path>
<path d="M288 128h192v64h-192v-64z"></path>
<path d="M352 288h64v32h-64v-32z"></path>
<path d="M448 288h64v32h-64v-32z"></path>
<path d="M544 288h64v32h-64v-32z"></path>
<path d="M256 352h64v32h-64v-32z"></path>
<path d="M352 352h64v32h-64v-32z"></path>
<path d="M160 352h64v32h-64v-32z"></path>
<path d="M256 416h64v32h-64v-32z"></path>
<path d="M160 416h64v32h-64v-32z"></path>
<path d="M256 480h64v32h-64v-32z"></path>
<path d="M160 480h64v32h-64v-32z"></path>
<path d="M256 544h64v32h-64v-32z"></path>
<path d="M256 608h64v32h-64v-32z"></path>
<path d="M704 128h-96v64h96v218c-37.4-35.9-88.2-58-144-58-114.7 0-208 93.3-208 208 0 55.8 22.1 106.6 58 144h-186v-144c0-8.8-7.2-16-16-16h-144v-352h96v-64h-96c-35.3 0-64 28.7-64 64v352c0 123.5 100.5 224 224 224h336c114.7 0 208-93.3 208-208v-368c0-35.3-28.7-64-64-64zM67.2 576h124.8v124.8c-62.6-12.8-112-62.2-124.8-124.8zM576 735.3v-63.3h-32v63.3c-84.3-7.6-151.6-75-159.3-159.3h63.3v-32h-63.3c7.6-84.3 75-151.6 159.3-159.3v63.3h32v-63.3c84.3 7.6 151.6 75 159.3 159.3h-63.3v32h63.3c-7.7 84.3-75 151.6-159.3 159.3z"></path>
<path d="M557.5 566.9l-61.5-61.5-22.6 22.6 75.3 75.3c3 3 7.1 4.7 11.3 4.7 0.5 0 1.1 0 1.6-0.1 4.8-0.5 9.1-3.1 11.7-7l72.9-109.3-26.6-17.8-62.1 93.1z"></path>
</svg>
