<!-- Generated by IcoMoon.io -->
<svg version="1.1" xmlns="http://www.w3.org/2000/svg" width="768" height="768" viewBox="0 0 768 768">
<title></title>
<g id="icomoon-ignore">
</g>
<path d="M0 32h160v64h-160v-64z"></path>
<path d="M288 32h192v64h-192v-64z"></path>
<path d="M608 32h160v64h-160v-64z"></path>
<path d="M192 0h64v224h-64v-224z"></path>
<path d="M512 0h64v224h-64v-224z"></path>
<path d="M288 128h192v64h-192v-64z"></path>
<path d="M704 128h-96v64h96v512h-480v-144c0-8.8-7.2-16-16-16h-144v-352h96v-64h-96c-35.3 0-64 28.7-64 64v352c0 123.5 100.5 224 224 224h480c35.3 0 64-28.7 64-64v-512c0-35.3-28.7-64-64-64zM67.2 576h124.8v124.8c-62.6-12.8-112-62.2-124.8-124.8z"></path>
<path d="M352 288h64v32h-64v-32z"></path>
<path d="M448 288h64v32h-64v-32z"></path>
<path d="M544 288h64v32h-64v-32z"></path>
<path d="M256 352h64v32h-64v-32z"></path>
<path d="M352 352h64v32h-64v-32z"></path>
<path d="M448 352h64v32h-64v-32z"></path>
<path d="M544 352h64v32h-64v-32z"></path>
<path d="M160 352h64v32h-64v-32z"></path>
<path d="M256 416h64v32h-64v-32z"></path>
<path d="M352 416h64v32h-64v-32z"></path>
<path d="M448 416h64v32h-64v-32z"></path>
<path d="M544 416h64v32h-64v-32z"></path>
<path d="M160 416h64v32h-64v-32z"></path>
<path d="M256 480h64v32h-64v-32z"></path>
<path d="M352 480h64v32h-64v-32z"></path>
<path d="M448 480h64v32h-64v-32z"></path>
<path d="M544 480h64v32h-64v-32z"></path>
<path d="M160 480h64v32h-64v-32z"></path>
<path d="M256 544h64v32h-64v-32z"></path>
<path d="M352 544h64v32h-64v-32z"></path>
<path d="M448 544h64v32h-64v-32z"></path>
<path d="M544 544h64v32h-64v-32z"></path>
<path d="M256 608h64v32h-64v-32z"></path>
<path d="M352 608h64v32h-64v-32z"></path>
<path d="M448 608h64v32h-64v-32z"></path>
<path d="M544 608h64v32h-64v-32z"></path>
</svg>
