<!-- Generated by IcoMoon.io -->
<svg version="1.1" xmlns="http://www.w3.org/2000/svg" width="768" height="768" viewBox="0 0 768 768">
<title></title>
<g id="icomoon-ignore">
</g>
<path d="M768 256c0-88.2-71.8-160-160-160-25.2 0-50.4 6-72.7 17.4-6.5 3.3-12.8 7.1-18.8 11.3-8-13.1-17.5-25.4-28.7-36.5-36.3-36.2-84.5-56.2-135.8-56.2s-99.5 20-135.8 56.2-56.2 84.5-56.2 135.8c0 30.3 7.2 60.4 20.9 87.2 10.7 21 25.5 40.1 43.1 55.9v32.4l-179.4-76.9c-9.9-4.2-21.2-3.2-30.2 2.7s-14.4 15.9-14.4 26.7v352c0 11.4 6.1 22 15.9 27.7 5 2.9 10.5 4.3 16.1 4.3 5.5 0 11-1.4 15.9-4.2l176.1-100.7v40.9c0 35.3 28.7 64 64 64h416c35.3 0 64-28.7 64-64v-320c0-13.6-4.2-26.1-11.5-36.5 7.6-18.8 11.5-39 11.5-59.5zM704 608h-416v-256h416v256zM608 160c52.9 0 96 43.1 96 96 0 11-1.9 21.8-5.5 32h-165.4c7.2-20.3 10.9-41.9 10.9-64 0-12.4-1.2-24.5-3.4-36.4 17.9-17.7 41.8-27.6 67.4-27.6zM352 96c70.6 0 128 57.4 128 128 0 22.8-5.9 44.7-17.1 64h-174.9c-14.4 0-27.7 4.8-38.4 12.9-16.5-21.9-25.6-48.6-25.6-76.9 0-70.6 57.4-128 128-128zM64 648.9v-248.4l160 68.6v88.3l-160 91.5zM288 672.1c0 0 0-0.1 0 0v-32.1h416v32l-416 0.1z"></path>
</svg>
