<!-- Generated by IcoMoon.io -->
<svg version="1.1" xmlns="http://www.w3.org/2000/svg" width="768" height="768" viewBox="0 0 768 768">
<title></title>
<g id="icomoon-ignore">
</g>
<path d="M512 480h-64c-17.7 0-32 14.3-32 32v240c0 8.8 7.2 16 16 16h96c8.8 0 16-7.2 16-16v-240c0-17.7-14.3-32-32-32zM448 736v-192h32v192h-32z"></path>
<path d="M320 352h-64c-17.7 0-32 14.3-32 32v368c0 8.8 7.2 16 16 16h96c8.8 0 16-7.2 16-16v-368c0-17.7-14.3-32-32-32zM256 736v-320h32v320h-32z"></path>
<path d="M128 480h-64c-17.7 0-32 14.3-32 32v240c0 8.8 7.2 16 16 16h96c8.8 0 16-7.2 16-16v-240c0-17.7-14.3-32-32-32zM64 736v-192h32v192h-32z"></path>
<path d="M704 224h-64c-17.7 0-32 14.3-32 32v496c0 8.8 7.2 16 16 16h96c8.8 0 16-7.2 16-16v-496c0-17.7-14.3-32-32-32zM640 736v-448h32v448h-32z"></path>
<path d="M752 0h-80v32h38.2l-281.7 222.4-216.1-61.7c-5-1.4-10.3-0.3-14.4 2.9l-172.5 138 20 25 166-132.8 216.1 61.7c4.9 1.4 10.3 0.4 14.3-2.8l294.1-232.3v43.6h32v-80c0-8.8-7.2-16-16-16z"></path>
</svg>
