<!-- Generated by IcoMoon.io -->
<svg version="1.1" xmlns="http://www.w3.org/2000/svg" width="768" height="768" viewBox="0 0 768 768">
<title>chart</title>
<path d="M288 544c35.3 0 64-28.7 64-64 0-11.7-3.2-22.8-8.7-32.2l73-127.8c3.2 0 6.3-0.3 9.4-0.7l58.7 73.4c-2.8 7.2-4.4 15.1-4.4 23.3 0 35.3 28.7 64 64 64s64-28.7 64-64c0-15.6-5.6-30-15-41.1l90.1-247.9c30-5.3 52.9-31.5 52.9-63 0-35.3-28.7-64-64-64s-64 28.7-64 64c0 15.6 5.6 30 15 41.1l-89.6 246.4-57.8-72.2c2.8-7.2 4.4-15.1 4.4-23.3 0-35.3-28.7-64-64-64s-64 28.7-64 64c0 11.7 3.2 22.8 8.7 32.2l-73 127.8c-35.2 0.2-63.7 28.8-63.7 64 0 35.3 28.7 64 64 64zM544 448c-17.6 0-32-14.4-32-32s14.4-32 32-32 32 14.4 32 32-14.4 32-32 32zM672 32c17.6 0 32 14.4 32 32s-14.4 32-32 32-32-14.4-32-32 14.4-32 32-32zM416 224c17.6 0 32 14.4 32 32s-14.4 32-32 32-32-14.4-32-32 14.4-32 32-32zM288 448c17.6 0 32 14.4 32 32s-14.4 32-32 32-32-14.4-32-32 14.4-32 32-32z"></path>
<path d="M758.6 649.4l-72-72-45.3 45.3 17.4 17.4h-530.7v-530.8l17.4 17.4 45.3-45.3-72-72c-12.5-12.5-32.8-12.5-45.3 0l-72 72 45.3 45.3 17.3-17.4v562.7c0 17.7 14.3 32 32 32h562.7l-17.4 17.4 45.3 45.3 72-72c12.5-12.6 12.5-32.8 0-45.3z"></path>
</svg>
