<!-- Generated by IcoMoon.io -->
<svg version="1.1" xmlns="http://www.w3.org/2000/svg" width="768" height="768" viewBox="0 0 768 768">
<title></title>
<g id="icomoon-ignore">
</g>
<path d="M752 256h-402l374-96.5c8.5-2.2 13.7-10.8 11.5-19.4l-32-128c-2.1-8.6-10.8-13.8-19.4-11.6l-560.9 140.2c-12.5-8-27.3-12.7-43.2-12.7-44.1 0-80 35.9-80 80v496c0 35.3 28.7 64 64 64h640c35.3 0 64-28.7 64-64v-432c0-8.8-7.2-16-16-16v0zM272 384c10.1-13.4 16-30 16-48s-6-34.6-16-48h121.4l-96 96h-25.4zM438.6 288h114.7l-96 96h-114.7l96-96zM598.6 288h114.7l-96 96h-114.7l96-96zM736 310.6v73.4h-73.4l73.4-73.4zM208 256c-26.5 0-48-21.5-48-48 0-14.9-4.1-28.8-11.2-40.7l88.6-22.2 124.4 74.8-139.8 36.1h-14zM488.7 187.2l-83.3 21.5-124-74.5 84.1-21 123.2 74zM409.3 102.2l84.1-21 122 73.3-83.3 21.5-122.8-73.8zM700.6 132.5l-41.7 10.8-121.6-73.1 139-34.8 24.3 97.1zM32 208c0-26.5 21.5-48 48-48s48 21.5 48 48c0 44.1 35.9 80 80 80 26.5 0 48 21.5 48 48s-21.5 48-48 48h-128c-26.5 0-48-21.5-48-48v-128zM64 704v-289.6c5.2 1.1 10.5 1.6 16 1.6h624v288h-640z"></path>
<path d="M96 352c17.6 0 32-14.4 32-32s-14.4-32-32-32-32 14.4-32 32 14.4 32 32 32z"></path>
<path d="M295.6 669.6c2.6 1.6 5.5 2.4 8.4 2.4 2.4 0 4.9-0.6 7.2-1.7l192-96c5.4-2.7 8.8-8.3 8.8-14.3s-3.4-11.6-8.8-14.3l-192-96c-5-2.5-10.8-2.2-15.6 0.7-4.7 2.9-7.6 8.1-7.6 13.6v192c0 5.5 2.9 10.7 7.6 13.6zM320 489.9l140.2 70.1-140.2 70.1v-140.2z"></path>
</svg>
