<!-- Generated by IcoMoon.io -->
<svg version="1.1" xmlns="http://www.w3.org/2000/svg" width="768" height="768" viewBox="0 0 768 768">
<title>cloud-lock</title>
<path d="M765.7 386.1c1.5-11.3 2.3-22.7 2.3-34.1 0-76.9-30-149.3-84.3-203.7-54.4-54.3-126.8-84.3-203.7-84.3-60 0-117.6 18.3-166.4 52.9-40 28.3-71.6 65.7-92.7 109.3-9.5-1.4-19.1-2.2-28.9-2.2-51.3 0-99.5 20-135.8 56.2s-56.2 84.5-56.2 135.8 20 99.5 56.2 135.8c36.3 36.2 84.5 56.2 135.8 56.2h192.8c37 57.7 101.7 96 175.2 96 114.7 0 208-93.3 208-208 0-23.8-4-46.7-11.4-68 4.2-13.6 7.3-27.7 9.1-41.9zM192 544c-70.6 0-128-57.4-128-128s57.4-128 128-128c43.2 0 83.1 21.5 106.9 57.6l53.4-35.2c-18-27.3-42.1-49-70-63.9 38.6-71.9 114.6-118.5 197.7-118.5 121.5 0 220.7 97.2 223.9 218-37.4-35.9-88.1-58-143.9-58-114.7 0-208 93.3-208 208 0 16.5 1.9 32.6 5.6 48h-165.6zM560 672c-97 0-176-79-176-176s79-176 176-176 176 79 176 176-79 176-176 176z"></path>
<path d="M656 480h-16v-16c0-44.1-35.9-80-80-80s-80 35.9-80 80v16h-16c-8.8 0-16 7.2-16 16v96c0 8.8 7.2 16 16 16h192c8.8 0 16-7.2 16-16v-96c0-8.8-7.2-16-16-16zM512 464c0-26.5 21.5-48 48-48s48 21.5 48 48v16h-96v-16zM640 576h-160v-64h160v64z"></path>
</svg>
