<!-- Generated by IcoMoon.io -->
<svg version="1.1" xmlns="http://www.w3.org/2000/svg" width="768" height="768" viewBox="0 0 768 768">
<title></title>
<g id="icomoon-ignore">
</g>
<path d="M763.5 400v0c3-15.5 4.5-31.7 4.5-48 0-76.9-30-149.3-84.3-203.7s-126.8-84.3-203.7-84.3c-60 0-117.6 18.3-166.4 52.9-40 28.3-71.6 65.7-92.7 109.3-9.5-1.4-19.1-2.2-28.9-2.2-51.3 0-99.5 20-135.8 56.2s-56.2 84.5-56.2 135.8 20 99.5 56.2 135.8c36.3 36.2 84.5 56.2 135.8 56.2h192.8c37 57.7 101.7 96 175.2 96 114.7 0 208-93.3 208-208 0-23.8-4-46.7-11.4-68 2.8-9.1 5.1-18.5 6.9-28zM192 544c-70.6 0-128-57.4-128-128s57.4-128 128-128c43.2 0 83.1 21.5 106.9 57.6l53.4-35.2c-18-27.3-42.1-49-70-63.9 38.6-71.9 114.6-118.5 197.7-118.5 121.5 0 220.7 97.2 223.9 218-37.4-35.9-88.1-58-143.9-58-114.7 0-208 93.3-208 208 0 16.5 1.9 32.6 5.6 48h-165.6zM576 671.3v-63.3h-32v63.3c-84.3-7.6-151.6-75-159.3-159.3h63.3v-32h-63.3c7.6-84.3 75-151.6 159.3-159.3v63.3h32v-63.3c84.3 7.6 151.6 75 159.3 159.3h-63.3v32h63.3c-7.7 84.3-75 151.6-159.3 159.3z"></path>
<path d="M557.5 502.9l-61.5-61.5-22.6 22.6 75.3 75.3c3 3 7.1 4.7 11.3 4.7 0.5 0 1.1 0 1.6-0.1 4.8-0.5 9.1-3.1 11.7-7l72.9-109.3-26.6-17.8-62.1 93.1z"></path>
</svg>
