<!-- Generated by IcoMoon.io -->
<svg version="1.1" xmlns="http://www.w3.org/2000/svg" width="768" height="768" viewBox="0 0 768 768">
<title>cloud-message</title>
<path d="M575.7 332.7c0 0 0 0 0 0 0-0.1 0-0.2-0.1-0.3 0 0 0 0 0-0.1s0-0.1 0-0.2c0 0 0 0 0 0 0-0.1 0-0.1-0.1-0.2 0 0 0-0.1 0-0.1 0-0.1 0-0.1 0-0.2 0 0 0-0.1 0-0.1s0-0.1 0-0.1c0 0 0-0.1 0-0.1 0-0.1 0-0.1-0.1-0.2 0 0 0-0.1 0-0.1s0-0.1 0-0.1c0 0 0-0.1 0-0.1 0-0.1 0-0.1-0.1-0.2 0 0 0 0 0-0.1s0-0.1-0.1-0.2c0 0 0 0 0-0.1s-0.1-0.1-0.1-0.2c0 0 0 0 0 0-1.2-2.9-3.2-5.5-5.9-7.3 0 0 0 0 0 0-0.1-0.1-0.3-0.2-0.4-0.3 0 0 0 0 0 0-0.1 0-0.1-0.1-0.2-0.1 0 0 0 0 0 0-0.1 0-0.1-0.1-0.2-0.1 0 0 0 0-0.1 0 0 0 0 0-0.1 0-0.1-0.1-0.3-0.2-0.4-0.2 0 0 0 0 0 0-3.2-1.7-6.7-2.2-10.1-1.7 0 0 0 0 0 0-0.1 0-0.2 0-0.2 0s0 0 0 0c-0.1 0-0.1 0-0.2 0 0 0 0 0-0.1 0s-0.2 0-0.2 0c0 0 0 0 0 0-0.1 0-0.1 0-0.2 0 0 0 0 0-0.1 0s-0.2 0-0.2 0.1c0 0 0 0-0.1 0s-0.1 0-0.2 0.1c0 0 0 0 0 0-0.1 0-0.2 0-0.2 0.1 0 0 0 0 0 0-0.2 0-0.3 0.1-0.5 0.2 0 0 0 0 0 0-1.6 0.5-3.2 1.4-4.6 2.4l-352.3 255.9c-5 3.7-7.5 9.9-6.3 16s5.8 11 11.8 12.5l118.7 29.7 29.7 118.7c1.6 6.3 6.9 11.1 13.3 12 0.7 0.1 1.5 0.2 2.2 0.2 5.7 0 11-3 13.9-8.1l57.2-100.2 115.3 43.1c4.9 1.8 10.4 1.2 14.7-1.8s6.9-7.9 6.9-13.2v-351.7c0-1.2-0.1-2.4-0.3-3.6zM245.1 584.8l232.8-169.3-148.1 190.4-84.7-21.1zM373.9 709.5l-20.5-81.8 144.8-186.2-80.6 191.4-43.7 76.6zM453.2 630.9l90.8-215.7v249.7l-90.8-34z"></path>
<path d="M683.7 84.3c-54.4-54.3-126.8-84.3-203.7-84.3-60 0-117.6 18.3-166.4 52.9-40 28.3-71.6 65.7-92.7 109.3-9.5-1.4-19.1-2.2-28.9-2.2-51.3 0-99.5 20-135.8 56.2s-56.2 84.5-56.2 135.8c0 44.6 15.6 88 43.9 122.3 27.9 33.8 66.9 57.2 109.7 65.9l12.7-62.7c-59.3-12.1-102.3-64.8-102.3-125.5 0-70.6 57.4-128 128-128 43.2 0 83.1 21.5 106.9 57.6l53.4-35.2c-18-27.3-42.1-49-70-63.9 38.6-71.9 114.6-118.5 197.7-118.5 123.5 0 224 100.5 224 224 0 53.4-22.5 104.8-61.7 141l43.4 47c25.7-23.7 45.9-51.9 60.1-83.7 14.7-32.9 22.2-68 22.2-104.4 0-76.8-30-149.2-84.3-203.6z"></path>
</svg>
