<!-- Generated by IcoMoon.io -->
<svg version="1.1" xmlns="http://www.w3.org/2000/svg" width="768" height="768" viewBox="0 0 768 768">
<title>cloud-warning</title>
<path d="M544 608h32v32h-32v-32z"></path>
<path d="M544 448h32v128h-32v-128z"></path>
<path d="M684.3 541.3c53.3-48.5 83.7-117 83.7-189.3 0-76.9-30-149.3-84.3-203.7s-126.8-84.3-203.7-84.3c-60 0-117.6 18.3-166.4 52.9-40 28.3-71.6 65.7-92.7 109.3-9.5-1.4-19.1-2.2-28.9-2.2-51.3 0-99.5 20-135.8 56.2-36.2 36.3-56.2 84.5-56.2 135.8s20 99.5 56.2 135.8c36.3 36.2 84.5 56.2 135.8 56.2h210.4l-13.2 26.5c-3.3 6.6-5.1 14-5.1 21.5 0 26.5 21.5 48 48 48h256c26.5 0 48-21.5 48-48 0-7.5-1.8-14.9-5.1-21.5l-46.7-93.2zM192 544c-70.6 0-128-57.4-128-128s57.4-128 128-128c43.2 0 83.1 21.5 106.9 57.6l53.4-35.2c-18-27.3-42.1-49-70-63.9 38.6-71.9 114.6-118.5 197.7-118.5 123.5 0 224 100.5 224 224 0 48.1-17.9 93.9-49.8 129l-51.2-102.4c-8-16.2-24.9-26.6-42.9-26.6s-34.9 10.4-42.9 26.5l-82.8 165.5h-242.4zM688 672h-256c-8.8 0-16-7.2-16-16 0-2.5 0.6-4.9 1.6-7l128.1-256.2c2.6-5.3 8.2-8.8 14.3-8.8s11.6 3.5 14.3 8.9l128.1 256.1c1.1 2.1 1.6 4.5 1.6 7 0 8.8-7.2 16-16 16z"></path>
</svg>
