<!-- Generated by IcoMoon.io -->
<svg version="1.1" xmlns="http://www.w3.org/2000/svg" width="768" height="768" viewBox="0 0 768 768">
<title></title>
<g id="icomoon-ignore">
</g>
<path d="M737.8 234.5c-19.3-45.7-47-86.8-82.3-122-35.3-35.3-76.3-62.9-122-82.3-47.4-20-97.7-30.2-149.5-30.2s-102.1 10.2-149.5 30.2c-45.7 19.3-86.8 47-122 82.3-35.3 35.3-62.9 76.3-82.3 122-20 47.4-30.2 97.7-30.2 149.5s10.2 102.1 30.2 149.5c19.3 45.7 47 86.8 82.3 122 35.3 35.3 76.3 62.9 122 82.3 47.4 20 97.7 30.2 149.5 30.2s102.1-10.2 149.5-30.2c45.7-19.3 86.8-47 122-82.3 35.3-35.3 62.9-76.3 82.3-122 20-47.4 30.2-97.7 30.2-149.5s-10.2-102.1-30.2-149.5zM384 704c-176.4 0-320-143.6-320-320s143.6-320 320-320c176.4 0 320 143.6 320 320s-143.6 320-320 320z"></path>
<path d="M384 96c-76.9 0-149.3 30-203.6 84.4s-84.4 126.7-84.4 203.6 30 149.3 84.4 203.6c54.3 54.4 126.7 84.4 203.6 84.4s149.3-30 203.6-84.4c54.4-54.3 84.4-126.7 84.4-203.6s-30-149.3-84.4-203.6c-54.3-54.4-126.7-84.4-203.6-84.4zM384 640c-141.2 0-256-114.8-256-256s114.8-256 256-256c141.2 0 256 114.8 256 256s-114.8 256-256 256z"></path>
<path d="M520.8 225.7l-192 96c-3.1 1.5-5.6 4.1-7.2 7.2l-96 192c-3.1 6.2-1.9 13.6 3 18.5 3.1 3.1 7.2 4.7 11.3 4.7 2.4 0 4.9-0.6 7.2-1.7l192-96c3.1-1.5 5.6-4.1 7.2-7.2l96-192c3.1-6.2 1.9-13.6-3-18.5s-12.3-6.1-18.5-3zM340.4 363l64.6 64.6-129.2 64.6 64.6-129.2zM427.6 405l-64.6-64.6 129.2-64.6-64.6 129.2z"></path>
</svg>
