<!-- Generated by IcoMoon.io -->
<svg version="1.1" xmlns="http://www.w3.org/2000/svg" width="768" height="768" viewBox="0 0 768 768">
<title>connection-warning</title>
<path d="M704 384h-128v-32h144c26.5 0 48-21.5 48-48 0-7.5-1.8-14.9-5.1-21.5l-128-255.9c-8-16.2-24.8-26.6-42.9-26.6s-34.9 10.4-42.9 26.5l-50.7 101.5h-82.4v-64c0-35.3-28.7-64-64-64h-288c-35.3 0-64 28.7-64 64v160c0 35.3 28.7 64 64 64h42.2l-9.8 58.7c-1.5 9.3 1.1 18.8 7.1 25.9s15 11.3 24.4 11.3h160c9.4 0 18.3-4.1 24.4-11.3s8.7-16.7 7.1-25.9l-9.8-58.7h42.4c35.3 0 64-28.7 64-64v-64h66.4l-61.2 122.5c-3.3 6.6-5.1 14-5.1 21.5 0 26.5 21.5 48 48 48h80v32h-128.1c-35.3 0-64 28.7-64 64v160c0 35.3 28.7 64 64 64h42.2l-9.8 58.7c-1.5 9.3 1.1 18.8 7.1 25.9 6.1 7.2 15 11.3 24.4 11.3h160c9.4 0 18.3-4.1 24.4-11.3s8.7-16.7 7.1-25.9l-9.8-58.7h42.4c35.3 0 64-28.7 64-64v-160c0-35.3-28.7-64-64-64zM255.6 352h-95.1l10.7-64h73.8l10.6 64zM352 224h-288v-160h288v160c0 0 0 0 0 0zM448 304c0-2.5 0.6-4.9 1.6-7l128.1-256.2c2.6-5.3 8.2-8.8 14.3-8.8s11.6 3.5 14.3 8.9l128.1 256.1c1.1 2.1 1.6 4.5 1.6 7 0 8.8-7.2 16-16 16h-256c-8.8 0-16-7.2-16-16zM607.6 736h-95.1l10.7-64h73.8l10.6 64zM704 608h-288v-160h288v160c0 0 0 0 0 0z"></path>
<path d="M576 256h32v32h-32v-32z"></path>
<path d="M576 96h32v128h-32v-128z"></path>
</svg>
