<!-- Generated by IcoMoon.io -->
<svg version="1.1" xmlns="http://www.w3.org/2000/svg" width="768" height="768" viewBox="0 0 768 768">
<title>connection</title>
<path d="M704 384h-128v-240c0-8.8-7.2-16-16-16h-144v-64c0-35.3-28.7-64-64-64h-288c-35.3 0-64 28.7-64 64v160c0 35.3 28.7 64 64 64h42.2l-9.8 58.7c-1.5 9.3 1.1 18.8 7.1 25.9s15 11.3 24.4 11.3h160c9.4 0 18.3-4.1 24.4-11.3s8.7-16.7 7.1-25.9l-9.8-58.7h42.4c35.3 0 64-28.7 64-64v-64h128v224h-128c-35.3 0-64 28.7-64 64v160c0 35.3 28.7 64 64 64h42.2l-9.8 58.7c-1.5 9.3 1.1 18.8 7.1 25.9 6.1 7.2 15 11.3 24.4 11.3h160c9.4 0 18.3-4.1 24.4-11.3s8.7-16.7 7.1-25.9l-9.8-58.7h42.4c35.3 0 64-28.7 64-64v-160c0-35.3-28.7-64-64-64zM255.6 352h-95.1l10.7-64h73.8l10.6 64zM352 224h-288v-160h288v160c0 0 0 0 0 0zM607.6 736h-95.1l10.7-64h73.8l10.6 64zM704 608h-288v-160h288v160c0 0 0 0 0 0z"></path>
</svg>
