<!-- Generated by IcoMoon.io -->
<svg version="1.1" xmlns="http://www.w3.org/2000/svg" width="768" height="768" viewBox="0 0 768 768">
<title>construction-cone</title>
<path d="M688 672h-51.1l-160-600.3c0-0.2-0.1-0.4-0.1-0.5-11.2-41.9-49.4-71.2-92.8-71.2s-81.6 29.3-92.8 71.2c0 0.2-0.1 0.4-0.1 0.5l-160 600.3h-51.1c-26.5 0-48 21.5-48 48s21.5 48 48 48h608c26.5 0 48-21.5 48-48s-21.5-48-48-48zM468.3 288h-168.6l17.1-64h134.5l17 64zM476.8 320l34.1 128h-253.8l34.1-128h185.6zM519.5 480l17.1 64h-305l17.1-64h270.8zM353.2 87.3c3.8-13.7 16.4-23.3 30.8-23.3s27 9.6 30.8 23.3c0 0.1 0.1 0.2 0.1 0.4l27.8 104.3h-117.4l27.8-104.3c0-0.1 0-0.2 0.1-0.4zM223 576h322l25.6 96h-373.2l25.6-96zM688 736h-608c-8.8 0-16-7.2-16-16s7.2-16 16-16h608c8.8 0 16 7.2 16 16s-7.2 16-16 16z"></path>
</svg>
