<!-- Generated by IcoMoon.io -->
<svg version="1.1" xmlns="http://www.w3.org/2000/svg" width="768" height="768" viewBox="0 0 768 768">
<title>construction</title>
<path d="M704 160h-40.6c5.5-9.4 8.6-20.4 8.6-32 0-35.3-28.7-64-64-64s-64 28.7-64 64c0 11.6 3.1 22.6 8.6 32h-337.2c5.5-9.4 8.6-20.4 8.6-32 0-35.3-28.7-64-64-64s-64 28.7-64 64c0 11.6 3.1 22.6 8.6 32h-40.6c-35.3 0-64 28.7-64 64v224c0 35.3 28.7 64 64 64h58.7l-24.6 160h-34.1v32h128v-32h-29.2l9.8-64h422.6l9.8 64h-29v32h128v-32h-34.1l-24.6-160h58.7c35.3 0 64-28.7 64-64v-224c0-35.3-28.7-64-64-64zM704 274.7l-173.3 173.3h-101.4l224-224h50.7v50.7zM205.3 448l224-224h133.5l-224 224h-133.5zM576 128c0-17.6 14.4-32 32-32s32 14.4 32 32-14.4 32-32 32-32-14.4-32-32zM128 128c0-17.6 14.4-32 32-32s32 14.4 32 32-14.4 32-32 32-32-14.4-32-32zM146.7 224l-82.7 82.7v-82.7h82.7zM64 397.3l173.3-173.3h101.5l-224 224h-50.8v-50.7zM590.4 576h-412.8l9.8-64h393.1l9.9 64zM704 448h-82.7l82.8-82.8-0.1 82.8c0 0 0 0 0 0z"></path>
</svg>
