<!-- Generated by IcoMoon.io -->
<svg version="1.1" xmlns="http://www.w3.org/2000/svg" width="768" height="768" viewBox="0 0 768 768">
<title></title>
<g id="icomoon-ignore">
</g>
<path d="M760.1 385.3v0l-154.1-281c-2.8-5.1-8.2-8.3-14-8.3h-416c-5.8 0-11.2 3.2-14 8.3l-154.1 281c-5 9.1-7.9 19.6-7.9 30.7v192c0 35.3 28.7 64 64 64h640c35.3 0 64-28.7 64-64v-192c0-11.1-2.9-21.6-7.9-30.7zM704 608h-640v-192h196c14.2 55.1 64.4 96 124 96 59.5 0 109.7-40.9 124-96h196v192zM496 352c-8.8 0-16 7.2-16 16v16c0 52.9-43.1 96-96 96s-96-43.1-96-96v-16c0-8.8-7.2-16-16-16h-208c-0.5 0-0.9 0-1.4 0l122.9-224h397.1l122.9 224c-0.5 0-0.9 0-1.4 0h-208.1z"></path>
</svg>
