<!-- Generated by IcoMoon.io -->
<svg version="1.1" xmlns="http://www.w3.org/2000/svg" width="768" height="768" viewBox="0 0 768 768">
<title>drawer-paper2</title>
<path d="M224 128h160v32h-160v-32z"></path>
<path d="M224 192h320v32h-320v-32z"></path>
<path d="M224 256h288v32h-288v-32z"></path>
<path d="M760.1 417.2v0l-152.1-277.3v-59.9c0-8.8-7.2-16-16-16h-416c-8.8 0-16 7.2-16 16v59.9l-152.1 277.3c-5 9.2-7.9 19.7-7.9 30.8v192c0 35.3 28.7 64 64 64h640c35.3 0 64-28.7 64-64v-192c0-11.1-2.9-21.6-7.9-30.8zM576 96v224h-384v-224h384zM704 640h-640v-192h640v192zM64 384c-0.5 0-0.9 0-1.4 0l97.4-177.6v113.6h-32v32h512v-32h-32v-113.6l97.4 177.6c-0.5 0-0.9 0-1.4 0h-640z"></path>
<path d="M288 560c0-8.8 7.2-16 16-16h160c8.8 0 16 7.2 16 16v16h32v-16c0-26.5-21.5-48-48-48h-160c-26.5 0-48 21.5-48 48v16h32v-16z"></path>
</svg>
