<!-- Generated by IcoMoon.io -->
<svg version="1.1" xmlns="http://www.w3.org/2000/svg" width="768" height="768" viewBox="0 0 768 768">
<title></title>
<g id="icomoon-ignore">
</g>
<path d="M737.8 234.5c-19.3-45.7-47-86.8-82.3-122-35.3-35.3-76.3-62.9-122-82.3-47.4-20-97.7-30.2-149.5-30.2s-102.1 10.2-149.5 30.2c-45.7 19.3-86.8 47-122 82.3-35.3 35.3-62.9 76.3-82.3 122-20 47.4-30.2 97.7-30.2 149.5s10.2 102.1 30.2 149.5c19.3 45.7 47 86.8 82.3 122 35.3 35.3 76.3 62.9 122 82.3 47.4 20 97.7 30.2 149.5 30.2s102.1-10.2 149.5-30.2c45.7-19.3 86.8-47 122-82.3 35.3-35.3 62.9-76.3 82.3-122 20-47.4 30.2-97.7 30.2-149.5s-10.2-102.1-30.2-149.5zM658.5 219.6c-4.1 2-8.2 4.6-12.2 7.7l-2.1 1.6-1.5 2.2c-15 22.2-38.5 29-54.1 24.2-8.4-2.6-12.7-7.7-12.7-15.3 0-21.6-11.5-38.4-20.7-52-8-11.8-12.8-19.3-11.2-24.8 1.4-4.8 8.6-14.7 39.1-29.6 30 23.9 55.6 53.1 75.4 86zM384 64c6.5 0 12.9 0.2 19.2 0.6-3.2 2.1-7 3.8-11.3 5.8-12.5 5.7-29.7 13.6-38.7 35.6l-0.3 0.6-0.2 0.6c-20.6 65.2-48.2 90.8-66.5 107.7-13.1 12.1-24.4 22.6-24.6 40-0.2 15.1 7.9 31.1 29.8 59 17.5 22.3 34.3 33.6 51.4 34.8 21.6 1.4 36.8-13.4 49.1-25.3 6.2-6 12.6-12.3 17.4-13.9 1.3-0.4 4.2-1.4 11.5 5.8 26.6 26.6 48.3 33.6 64.2 38.8 14.7 4.8 21.4 7 28.9 21.3 12.5 23.7 31.4 32.9 45.2 39.6 15.1 7.3 17 9.2 17 17 0 5.1 0.2 10.6 0.3 16.3 0.6 20.4 1.4 51.3-7.8 60.8-1.3 1.4-3.5 2.9-8.5 2.9-31.9 0-44.7 28.4-53.2 47.2-2.4 5.4-6.4 14.1-9 16.9-20.9-2.9-46.5 21-86.2 59.8-8.8 8.6-20.4 20-29.6 28 1-10.6 3.4-26.5 8.6-49.1 7-30.7 17-63.8 24.2-80.5 4.7-10.9 6-27.9-14.6-46.6-11.1-10-26.4-19-41.3-27.7-10.7-6.2-20.7-12.1-28.4-17.9-8.6-6.5-10.2-9.8-10.4-10.4 0-5.9 1.1-12.6 2.1-19.7 4.1-26.7 10.2-67.1-43.7-90.7-5.6-2.5-11.5-4.8-17.1-7-45.1-17.8-91.6-36.2-99.9-160 57.4-55.8 135.9-90.3 222.4-90.3zM91.6 513.9c19.1 3.3 33-10.7 43.3-21 3.4-3.4 10.5-10.5 13.4-11.2 1.4 0.6 11.5 6 28.9 52 10.2 27 10.7 54.8 11.2 86.9 0.1 5.4 0.2 10.9 0.3 16.7-41.8-32.3-75.4-74.7-97.1-123.4zM221.5 659.6c-0.8-13.7-1-26.8-1.3-39.6-0.6-33.7-1.1-65.4-13.3-97.7-17.8-47-32.9-67.8-52.2-72-18.7-4-32.5 9.9-42.6 20-4.1 4.1-12.5 12.5-15.2 12-1.1-0.2-10.7-3.3-27.9-41.8-3.3-18.4-5-37.2-5-56.5 0-74.5 25.6-143.2 68.5-197.6 5.8 43 17.3 76.2 34.7 100.7 24.1 34 55.1 46.2 82.4 57 5.6 2.2 10.9 4.3 16.1 6.6 31.4 13.7 29 29.8 24.9 56.5-1.2 8.1-2.5 16.5-2.5 24.8 0 23.7 26.6 39.2 54.7 55.7 13.4 7.9 27.3 16 35.9 23.8 7.4 6.7 7 9.5 6.7 10.2-8.4 19.5-19.6 56.8-27.1 90.8-4.1 18.4-6.8 34.8-8.1 47.5-1.8 18.7-0.4 29.8 4.6 37.1 1.8 2.6 4.2 4.7 6.9 6.2-50.9-3.6-98.6-19.1-140.2-43.7zM384 704c-1.6 0-3.1 0-4.7 0 12.6-4.5 28-19.2 54.6-45.2 12.8-12.5 26-25.4 37.7-35.4 14.7-12.5 20.9-15 22.6-15.4 6.9 1 18.9 0.3 29.1-12.6 5.2-6.5 8.8-14.5 12.6-23 9-20 14.4-28.3 24.1-28.3 12.5 0 23.4-4.4 31.4-12.6 18.7-19.2 17.7-53.6 16.9-84-0.2-5.5-0.3-10.7-0.3-15.4 0-28.9-20.3-38.7-35.1-45.8-11.9-5.8-23.2-11.2-30.8-25.6-13.6-25.9-30.8-31.5-47.4-36.9-14.2-4.6-30.3-9.9-51.5-31-14.1-14.1-29-18.7-44.3-13.5-11.7 3.9-20.7 12.7-29.5 21.3-8.9 8.6-17.2 16.8-24.6 16.3-4.2-0.3-13.4-3.6-28.4-22.6-15.3-19.5-23.1-32.5-23-38.7 0.1-3.6 5.5-8.8 14.4-17 19.4-18 51.9-48.1 75.1-120.8 4-9.4 10.5-12.7 22.2-18.1 12-5.5 27-12.4 35.6-30.4 40.9 7.4 79.1 22.5 113 43.8-23.7 13.5-36.2 26.6-40.5 41.5-5.9 20.3 5.5 37 15.5 51.7 7.8 11.4 15.2 22.2 15.2 33.9 0 21.6 13.5 39.2 35.3 45.9 5.9 1.8 12.5 2.8 19.4 2.8 23 0 49.9-10.7 69-37.3 2.1-1.5 4.1-2.6 5.9-3.5 19.6 41.1 30.5 87.2 30.5 135.9 0 176.4-143.6 320-320 320z"></path>
</svg>
