<!-- Generated by IcoMoon.io -->
<svg version="1.1" xmlns="http://www.w3.org/2000/svg" width="768" height="768" viewBox="0 0 768 768">
<title></title>
<g id="icomoon-ignore">
</g>
<path d="M752 128h-736c-8.8 0-16 7.2-16 16v480c0 8.8 7.2 16 16 16h736c8.8 0 16-7.2 16-16v-480c0-8.8-7.2-16-16-16zM128 160v64h-64v-64h64zM64 448h64v64h-64v-64zM64 416v-64h64v64h-64zM64 320v-64h64v64h-64zM64 608v-64h64v64h-64zM576 576h-384v-384h384v384zM704 512h-64v-64h64v64zM704 416h-64v-64h64v64zM704 320h-64v-64h64v64zM640 608v-64h64v64h-64zM704 224h-64v-64h64v64z"></path>
</svg>
