<!-- Generated by IcoMoon.io -->
<svg version="1.1" xmlns="http://www.w3.org/2000/svg" width="768" height="768" viewBox="0 0 768 768">
<title>fingerprint</title>
<path d="M672 368c0-6.4-0.3-12.7-0.9-19-4.6-92.3-27.6-171.9-67.2-231.6-50.9-76.8-127-117.4-219.9-117.4s-169 40.6-219.9 117.4c-44.6 67.2-68.1 159.3-68.1 266.6 0 88.7 5.7 189.6 48.1 264.6 21.9 38.7 52.4 68.4 90.7 88.1 40.7 21 89.5 31.2 149.2 31.2s108.5-10.2 149.2-31.2c38.3-19.8 68.8-49.4 90.7-88.1 42.4-75 48.1-175.9 48.1-264.6 0-5.4-0.1-10.7-0.2-16h0.2zM217.4 152.8c39.1-58.9 95.1-88.8 166.6-88.8 44.3 0 82.7 11.5 114.7 34.2-11.5-1.4-23.1-2.2-34.7-2.2-50 0-121.8 9.2-179.7 53.3-61.2 46.5-92.3 120.1-92.3 218.7 0 79.4 64.6 144 144 144s144-64.6 144-144v-16h-32v16c0 61.8-50.2 112-112 112s-112-50.2-112-112c0-208.8 150.4-240 240-240 26.6 0 53.2 4.5 78.3 13.1 2.8 3.8 5.6 7.6 8.3 11.7 7.6 11.4 14.4 23.7 20.5 37-31.3-18.9-68-29.8-107.1-29.8-114.7 0-208 93.3-208 208 0 44.1 35.9 80 80 80s80-35.9 80-80c0-26.5 21.5-48 48-48s48 21.5 48 48c0 97-79 176-176 176-95.2 0-173-76-175.9-170.6 1.4-90 21.2-166.1 57.3-220.6zM568.1 617.2c-33.5 59.2-92 86.8-184.1 86.8s-150.7-27.6-184.1-86.8c-1.3-2.3-2.5-4.6-3.7-6.9 37.9 19.4 80.1 29.7 123.8 29.7v-32c-51.8 0-101.4-16.5-142.5-46.8-6.6-24-10.8-49.8-13.4-76.2 37.5 54.9 100.5 91 171.9 91 114.7 0 208-93.3 208-208 0-44.1-35.9-80-80-80s-80 35.9-80 80c0 26.5-21.5 48-48 48s-48-21.5-48-48c0-97 79-176 176-176 50.1 0 95.4 21 127.5 54.8 10.9 40.7 16.5 86.9 16.5 137.2 0 80.4-4.7 171-39.9 233.2z"></path>
<path d="M320 368v16h32v-16c0-61.8 50.2-112 112-112h16v-32h-16c-79.4 0-144 64.6-144 144z"></path>
<path d="M512 224v32c15.1 0 30.6 12.4 42.6 34 13.8 24.9 21.4 58.3 21.4 94 0 123.3-70.1 256-224 256v32c80.1 0 147.1-32 193.7-92.5 20.4-26.5 36.2-57.6 47-92.3 10.2-33 15.3-67.6 15.3-103.1 0-89.8-42.2-160.1-96-160.1z"></path>
</svg>
