<!-- Generated by IcoMoon.io -->
<svg version="1.1" xmlns="http://www.w3.org/2000/svg" width="768" height="768" viewBox="0 0 768 768">
<title>flag3</title>
<path d="M703.7 109c-3.7-19.4-24.6-35.7-64.1-49.8-29.7-10.6-69.4-19.4-108.9-24.2-33.2-4-63.3-5-87-2.8-31.7 3-50.4 11.6-57.2 26.5-2.2 4.9-3.1 9.9-2.5 15v73.6c-16.8 5.7-40 10.3-68.9 11.6-54.1 2.5-110-6.8-155.1-25.5v-14.1c19.1-11.1 32-31.8 32-55.4 0-35.3-28.7-64-64-64s-64 28.8-64 64.1c0 23.6 12.9 44.3 32 55.4v648.6h64v-376.1c44.5 16.3 93.9 23.6 139 23.6 45.6 0 86.7-7.5 113.5-20.7 19.8-9.7 31.6-22.2 35.1-37.2 0.3-1.2 0.4-2.4 0.4-3.6v-65.4c34.2-3.1 85.3 1.2 133 11.6 27.1 5.9 50.3 13.2 67.1 21 18.7 8.8 23.8 15.7 24.1 17.7 1.4 7.6 8.1 13 15.7 13 0.5 0 1 0 1.5-0.1 8.2-0.8 14.5-7.7 14.5-15.9v-223.9c0.1-1 0-2-0.2-3zM128 32c17.6 0 32 14.4 32 32s-14.4 32-32 32-32-14.4-32-32 14.4-32 32-32zM398.401 366.1c-48.5 23.8-156.2 25.5-238.4-8.6v-189.6c47.1 17.3 102.8 25.6 156.6 23.1 28.2-1.3 54.2-5.6 75.2-12.4 9.1-3 17.2-6.4 24.1-10.2v183.3c-1.8 4.6-8.2 9.9-17.5 14.4zM672.001 297.6c-3.2-1.8-6.6-3.5-10.3-5.3-18.9-8.9-44.5-16.9-73.9-23.3-49.9-10.9-102.3-15.4-139.8-12.4v-132.6c-0.1-11.1-5-24.9-21.2-39.8 0 0-0.1 0-0.1-0.1-7.3-6.6-9.7-10.7-10.5-12.5 4.2-3.2 20.6-9.2 61-8.5 35.1 0.6 78 6.4 114.9 15.4 24.3 5.9 44.9 13 59.5 20.4 14.1 7.1 19.1 12.8 20.3 15.2v183.5z"></path>
</svg>
