<!-- Generated by IcoMoon.io -->
<svg version="1.1" xmlns="http://www.w3.org/2000/svg" width="768" height="768" viewBox="0 0 768 768">
<title>funnel</title>
<path d="M703.6 90.9c-1.4-8.8-6.4-16.6-13.8-21.5-34.3-22.9-80.4-40.6-137.1-52.6-51.3-11-109.6-16.8-168.7-16.8s-117.4 5.8-168.7 16.7c-56.6 12.1-102.8 29.8-137 52.7-7.4 4.9-12.4 12.7-13.8 21.5s0.9 17.8 6.3 24.8l217.2 279.3v357c0 6.2 3.5 11.8 9.1 14.4 2.2 1.1 4.6 1.6 6.9 1.6 3.6 0 7.1-1.2 10-3.5l160-128c3.8-3 6-7.6 6-12.5v-229l217.3-279.3c5.4-7.1 7.7-16.1 6.3-24.8zM384 64c85 0 164.9 12.8 222.3 34.7-121.6 39.2-323 39.2-444.6 0 57.4-21.8 137.3-34.7 222.3-34.7zM422.7 364.4c-4.4 5.6-6.7 12.5-6.7 19.6v257.9l-64 51.2v-309.1c0-7.1-2.4-14-6.7-19.6l-179.7-231.1c19.7 5.6 41.3 10.5 64.8 14.5 47 8 100.1 12.2 153.7 12.2s106.7-4.2 153.7-12.2c23.5-4 45.1-8.8 64.8-14.5l-179.9 231.1z"></path>
</svg>
