<!-- Generated by IcoMoon.io -->
<svg version="1.1" xmlns="http://www.w3.org/2000/svg" width="768" height="768" viewBox="0 0 768 768">
<title></title>
<g id="icomoon-ignore">
</g>
<path d="M384 256c-70.6 0-128 57.4-128 128s57.4 128 128 128c70.6 0 128-57.4 128-128s-57.4-128-128-128zM384 480c-52.9 0-96-43.1-96-96s43.1-96 96-96 96 43.1 96 96-43.1 96-96 96z"></path>
<path d="M384 320c-35.3 0-64 28.7-64 64s28.7 64 64 64c35.3 0 64-28.7 64-64s-28.7-64-64-64zM384 416c-17.6 0-32-14.4-32-32s14.4-32 32-32c17.6 0 32 14.4 32 32s-14.4 32-32 32z"></path>
<path d="M704.1 288h-48.5c-11.8-33.3-29.6-64.3-52.7-91.2l24.3-42c8.5-14.8 10.8-32.1 6.4-48.6s-15-30.3-29.8-38.9l-55.4-32c-30.6-17.6-69.8-7.1-87.4 23.4l-24.3 42c-17.4-3.1-35-4.7-52.7-4.7s-35.3 1.6-52.6 4.8l-24.3-42c-17.6-30.6-56.9-41.1-87.4-23.4l-55.4 32c-14.8 8.5-25.4 22.4-29.8 38.9s-2.2 33.8 6.4 48.6l24.3 42c-23 26.9-40.9 57.9-52.7 91.2h-48.6c-35.3 0-64 28.7-64 64v64c0 35.3 28.7 64 64 64h48.5c11.8 33.3 29.6 64.3 52.7 91.2l-24.3 42c-8.5 14.8-10.8 32.1-6.4 48.6s15 30.3 29.8 38.9l55.4 32c10.1 5.8 21 8.6 31.9 8.6 22.1 0 43.7-11.5 55.5-32l24.3-42c17.3 3.2 34.9 4.8 52.6 4.8s35.3-1.6 52.6-4.8l24.3 42c11.8 20.5 33.4 32 55.5 32 10.8 0 21.8-2.8 31.9-8.6l55.4-32c14.8-8.5 25.4-22.3 29.8-38.9 4.4-16.5 2.2-33.8-6.4-48.6l-24.3-42c23-26.9 40.9-57.9 52.7-91.2h48.5c35.3 0 64-28.7 64-64v-64c0.2-35.4-28.5-64.1-63.8-64.1zM704.1 416h-72.2c-14.6 0-27.4 9.9-31 24-10.1 39.3-30.9 75.2-60 103.8-10.4 10.2-12.6 26.2-5.3 38.8l36.1 62.5-55.4 32-36.1-62.5c-7.3-12.6-22.2-18.7-36.3-14.8-19.4 5.4-39.6 8.1-60 8.1s-40.6-2.7-60-8.1c-14.1-3.9-29 2.2-36.3 14.8l-36.1 62.5-55.4-32 36.1-62.5c7.3-12.6 5.1-28.6-5.3-38.8-29.1-28.6-49.9-64.5-60-103.8-3.6-14.1-16.4-24-31-24h-72.2v-64h72.2c14.6 0 27.4-9.9 31-24 10.1-39.3 30.9-75.2 60-103.8 10.4-10.2 12.6-26.2 5.3-38.8l-36.1-62.5 55.4-32 36.1 62.5c7.3 12.6 22.2 18.7 36.3 14.8 19.4-5.4 39.6-8.1 60-8.1s40.6 2.7 60 8.1c14.1 3.9 29-2.2 36.3-14.8l36.1-62.5 55.4 32-36.1 62.5c-7.3 12.6-5.1 28.6 5.3 38.8 29.1 28.6 49.9 64.5 60 103.8 3.6 14.1 16.4 24 31 24h72.2v64z"></path>
</svg>
