<!-- Generated by IcoMoon.io -->
<svg version="1.1" xmlns="http://www.w3.org/2000/svg" width="768" height="768" viewBox="0 0 768 768">
<title>ghost-dead</title>
<path d="M336 358.6l22.6-22.6-48-48 48-48-22.6-22.6-48 48-48-48-22.6 22.6 48 48-48 48 22.6 22.6 48-48z"></path>
<path d="M528 217.4l-48 48-48-48-22.6 22.6 48 48-48 48 22.6 22.6 48-48 48 48 22.6-22.6-48-48 48-48z"></path>
<path d="M256 448h64v48c0 44.1 35.9 80 80 80s80-35.9 80-80v-48h32v-32h-256v32zM448 496c0 26.5-21.5 48-48 48s-48-21.5-48-48v-48h96v48z"></path>
<path d="M767 440.2c-0.5-2.1-5.6-21.5-17.9-41.2-19-30.3-46.4-47-77.1-47-17.6 0-32-14.4-32-32v-32c0-68.3-26.6-132.5-74.8-180.9-48.2-48.3-112.4-75-180.8-75.1h-0.9c-68.3 0.1-132.5 26.8-180.7 75.1-48.2 48.4-74.8 112.6-74.8 180.9v32c0 17.6-14.4 32-32 32-30.8 0-58.2 16.7-77.1 47-12.4 19.8-17.4 39.1-17.9 41.2-2.5 9.8-0.1 20.2 6.3 28 8.7 10.6 16.9 20.5 24.9 30 62.6 75.1 94.1 112.8 95.9 206.4 0.3 17.4 14.6 31.4 32 31.4 42.5 0 65.1-25.8 80.1-42.9 13.8-16 19.4-21.1 31.8-21.1s18 5.1 31.9 21.1c15 17.1 37.6 42.9 80.1 42.9s65.1-25.8 80.1-42.9c13.9-16 19.5-21.1 31.9-21.1s18 5.1 31.9 21.1c15 17.1 37.6 42.9 80.1 42.9 17.4 0 31.7-14 32-31.4 1.8-93.6 33.3-131.3 95.9-206.4 7.9-9.5 16.1-19.4 24.9-30 6.4-7.7 8.7-18.1 6.2-28zM81.3 457.3c-4.2-5-8.5-10.2-12.9-15.4 5.3-11.6 14.6-25.9 27.6-25.9 24.6 0 47-9.3 64-24.5v174.1c-19.2-37-46.2-69.4-78.7-108.3zM496 608c-42.5 0-65.1 25.8-80.1 42.9-13.9 16-19.5 21.1-31.9 21.1s-18-5.1-31.9-21.1c-15-17.1-37.6-42.9-80.1-42.9s-65.1 25.8-80 42.8v-329.2c0-0.5 0-1.1 0-1.6v-32c0-105.7 86-191.8 191.6-192h0.7c105.7 0.2 191.7 86.3 191.7 192v362.8c-15-17.1-37.6-42.8-80-42.8zM686.8 457.3c-32.5 39-59.5 71.4-78.8 108.4v-174.2c17 15.2 39.4 24.5 64 24.5 13 0 22.3 14.3 27.6 25.8-4.4 5.3-8.6 10.4-12.8 15.5z"></path>
</svg>
