<!-- Generated by IcoMoon.io -->
<svg version="1.1" xmlns="http://www.w3.org/2000/svg" width="768" height="768" viewBox="0 0 768 768">
<title>head</title>
<path d="M559.7 708.1c-1-0.5-82.4-47.4-105.6-134.5 32.4 5.7 58-0.4 74.9-7.4 70.5-29.1 111-118.6 111-245.6 0-115.6-29.5-201.7-87.7-256-52-48.5-125.3-69.9-217.8-63.5-38.1 2.6-71.9 11.3-100.3 25.9-29.8 15.3-53.9 37-71.5 64.5-25.8 40.3-37.3 92.4-34.2 154.9 3 61.2 20.1 133 50.7 213.4 18.6 48.8 18.1 104.7-1.5 166.3-15.6 48.9-38.2 84.1-42.2 89.4-7.9 9.5-9.7 22.7-4.5 33.9 5.2 11.3 16.6 18.6 29.1 18.6h384c14.5 0 27.3-9.8 31-23.9 3.5-14.1-2.7-28.9-15.4-36zM135.5 715.4c0.1-0.1 0.1-0.1 0.2-0.2-0.1 0.1-0.1 0.1-0.2 0.2zM192.4 243.3c-2.4-49 5.7-88.4 24.2-117.3 23.3-36.5 64.5-57 122.3-61 74.1-5.1 131.2 10.5 169.7 46.4 44.7 41.7 67.3 112.1 67.3 209.2 0 52.1-7.7 97.4-22.2 130.7-12.3 28.3-29.3 47.5-49.2 55.7-16.4 6.8-35.4 6.4-56.6-1.2-25.6-9.2-52.7-28-80.7-56.1l-45.2 45.3c22.1 22.2 43.1 38.7 62.7 50.9 4.4 57.3 29 111.7 71.6 158.5 11.4 12.5 22.7 23 33 31.6h-291c11.6-19.5 27.3-50.4 39.3-87.2 24.8-75.9 25.3-149.1 1.4-211.7-28.2-74.2-43.9-139.4-46.6-193.8z"></path>
</svg>
