<!-- Generated by IcoMoon.io -->
<svg version="1.1" xmlns="http://www.w3.org/2000/svg" width="768" height="768" viewBox="0 0 768 768">
<title></title>
<g id="icomoon-ignore">
</g>
<path d="M485.5 423.7c36.2-18.4 66.7-46.4 88.3-80.8 22.2-35.4 34-76.4 34.2-118.4 0.1-59.7-23.1-116-65.4-158.5-42.3-42.4-98.5-65.9-158.2-66h-0.9c-59.7 0.1-115.8 23.6-158.2 66.1-42.3 42.5-65.6 98.8-65.4 158.5 0.1 42 11.9 82.9 34.2 118.4 21.6 34.4 52.2 62.4 88.3 80.8 4.7 2.4 6.7 7.9 4.8 12.9l-90.9 239.5c-7.9 20.8-5.1 44.2 7.6 62.6 12.7 18.3 33.5 29.3 55.8 29.3h248.3c22.3 0 43.1-10.9 55.8-29.3s15.5-41.7 7.6-62.6l-90.9-239.5c-1.7-5.1 0.4-10.6 5-13zM420.8 459.3l90.9 239.5c0.2 0.5 0.7 1.9-0.4 3.5s-2.6 1.6-3.1 1.6h-248.3c-0.5 0-2 0-3.1-1.6s-0.6-3-0.4-3.5l90.9-239.5c13.5-35.6-1.8-75.4-35.6-92.6-53.8-27.4-87.4-81.9-87.5-142.3-0.1-42.6 16.5-82.8 46.8-113.2 30-30.3 70.1-47.1 112.6-47.2h0.7c42.6 0.1 82.7 16.9 112.9 47.3s46.9 70.6 46.8 113.2c-0.2 60.4-33.7 114.9-87.5 142.3-33.8 17.1-49.2 56.9-35.7 92.5z"></path>
</svg>
