<!-- Generated by IcoMoon.io -->
<svg version="1.1" xmlns="http://www.w3.org/2000/svg" width="768" height="768" viewBox="0 0 768 768">
<title></title>
<g id="icomoon-ignore">
</g>
<path d="M752 0h-112c-8.5 0-16.6 3.4-22.6 9.4l-322.2 322.1c-22.7-7.6-46.6-11.5-71.2-11.5-59.8 0-116.1 23.3-158.4 65.6s-65.6 98.6-65.6 158.4 23.3 116.1 65.6 158.4c42.3 42.3 98.6 65.6 158.4 65.6s116.1-23.3 158.4-65.6c42.3-42.3 65.6-98.6 65.6-158.4 0-22-3.2-43.6-9.3-64.1l100.6-100.6c3-3 4.7-7.1 4.7-11.3v-48h48c8.8 0 16-7.2 16-16v-48h16c8.8 0 16-7.2 16-16v-16h48c8.8 0 16-7.2 16-16v-48h48c8.8 0 16-7.2 16-16v-128c0-8.8-7.2-16-16-16zM224 704c-88.2 0-160-71.8-160-160s71.8-160 160-160 160 71.8 160 160-71.8 160-160 160zM736 128h-48c-8.8 0-16 7.2-16 16v48h-48c-8.8 0-16 7.2-16 16v16h-16c-8.8 0-16 7.2-16 16v48h-48c-8.8 0-16 7.2-16 16v57.4l-85.9 85.9c-5.3-11.1-11.6-21.8-18.8-32l79.3-79.3-22.6-22.6-77 77c-1.5-1.6-3-3.2-4.6-4.8-8.6-8.6-17.7-16.4-27.4-23.4l298.3-298.2h82.7v64z"></path>
<path d="M112.1 496.1c-15.1 15.1-19.8 38-13.2 64.4 5.9 23.5 20.3 47.6 40.7 68 20.3 20.3 44.5 34.8 68 40.7 7.8 2 15.3 2.9 22.4 2.9 16.9 0 31.4-5.5 42-16.1 29.4-29.4 17.4-87.6-27.4-132.4-45-44.9-103.1-56.9-132.5-27.5zM249.3 633.3c-6.8 6.8-19.2 8.5-34 4.8-17.7-4.4-37.1-16.2-53.1-32.2-16.1-16.1-27.8-35.4-32.2-53.1-3.7-14.8-2-27.2 4.8-34 4.4-4.4 11.3-6.7 19.7-6.7 18.4 0 44.2 10.9 67.4 34.1 33.7 33.7 41.5 73 27.4 87.1z"></path>
</svg>
