<!-- Generated by IcoMoon.io -->
<svg version="1.1" xmlns="http://www.w3.org/2000/svg" width="768" height="768" viewBox="0 0 768 768">
<title></title>
<g id="icomoon-ignore">
</g>
<path d="M768 352h-514.5c-4.7-29-15.6-55.9-32-77.7-24-32-58-50.3-93.5-50.3s-69.5 18.3-93.5 50.3c-22.2 29.7-34.5 68.6-34.5 109.7s12.3 80 34.5 109.7c24 32 58 50.3 93.5 50.3s69.5-18.3 93.5-50.3c16.4-21.8 27.3-48.7 32-77.7h226.5v80c0 8.8 7.2 16 16 16h64c8.8 0 16-7.2 16-16v-16h32v48c0 8.8 7.2 16 16 16h64c8.8 0 16-7.2 16-16v-112h64v-64zM128 480c-34.7 0-64-44-64-96s29.3-96 64-96 64 44 64 96-29.3 96-64 96zM672 512h-32v-48c0-8.8-7.2-16-16-16h-64c-8.8 0-16 7.2-16 16v16h-32v-64h160v96z"></path>
</svg>
