<!-- Generated by IcoMoon.io -->
<svg version="1.1" xmlns="http://www.w3.org/2000/svg" width="768" height="768" viewBox="0 0 768 768">
<title>lighter</title>
<path d="M640 320v-48c0-8.8-7.2-16-16-16h-112v-16c0-8.8-7.2-16-16-16h-128c-8.8 0-16 7.2-16 16v80c-8.7 0-16.5 3.5-22.3 9.1l-196.3-196.4c-3-3-7.1-4.7-11.3-4.7s-8.3 1.7-11.3 4.7l-91.9 91.9c-0.1 0.1-0.1 0.1-0.2 0.2-12.1 12.2-18.6 28.2-18.6 45.2s6.7 33.1 18.8 45.1l145.9 146c12.5 12.5 28.9 18.7 45.3 18.7 16.3 0 32.6-6.2 45.1-18.5l64.9-64.9v307.6c0 35.3 28.7 64 64 64h224c35.3 0 64-28.7 64-64v-352c-0.1-17.7-14.4-32-32.1-32zM608 288v32h-96v-32h96zM608 384v256h-224v-256h224zM384 256h96v64h-96v-64zM210 415.9l-145.9-146c0 0 0 0 0.1-0.1l80.5-80.5 146 146-80.7 80.6zM384 704v-32h224v32h-224z"></path>
<path d="M432 160c13.4 0 25.6-5.2 34.4-14.6 8.9-9.6 13.6-22.8 13.6-38.1 0-25.9-27.9-86.3-33.5-98.1-2.7-5.6-8.3-9.2-14.5-9.2s-11.8 3.6-14.5 9.2c-5.6 11.8-33.5 72.2-33.5 98.1 0 15.3 4.7 28.5 13.6 38.1 8.8 9.4 21 14.6 34.4 14.6zM432 55.9c8.6 21.2 16 42.5 16 51.4 0 13.2-5.8 20.7-16 20.7s-16-7.5-16-20.7c0-8.9 7.4-30.2 16-51.4z"></path>
</svg>
