<!-- Generated by IcoMoon.io -->
<svg version="1.1" xmlns="http://www.w3.org/2000/svg" width="768" height="768" viewBox="0 0 768 768">
<title></title>
<g id="icomoon-ignore">
</g>
<path d="M128 352v-64c0-51.3 20-99.5 56.2-135.8s84.5-56.2 135.8-56.2c8.2 0 16.5 0.5 24.6 1.6 37.9-40.4 91.8-65.6 151.4-65.6 114.7 0 208 93.3 208 208 0 86.4-52.9 160.6-128 192v240c0 35.3-28.7 64-64 64h-384c-35.3 0-64-28.7-64-64v-256c0-35.3 28.7-64 64-64zM192 288v64h128.8c-20.8-32.3-32.8-70.8-32.8-112 0-27.9 5.5-54.6 15.6-78.9-62.9 8-111.6 61.9-111.6 126.9zM672 240c0-97-79-176-176-176s-176 79-176 176 79 176 176 176 176-79 176-176zM128 672h384v-224.6c-5.3 0.4-10.6 0.6-16 0.6-40.7 0-78.7-11.7-110.7-32h-257.3v256z"></path>
<path d="M416 512c17.6 0 32 14.4 32 32s-14.4 32-32 32-32-14.4-32-32 14.4-32 32-32zM416 544c0 0 0 0 0 0v0z"></path>
<path d="M320 576c-17.6 0-32-14.4-32-32s14.4-32 32-32 32 14.4 32 32-14.4 32-32 32zM320 544v0c0 0 0 0 0 0z"></path>
<path d="M224 576c-17.6 0-32-14.4-32-32s14.4-32 32-32 32 14.4 32 32-14.4 32-32 32zM224 544v0c0 0 0 0 0 0z"></path>
<path d="M591.997 153.4l-128 128-64-64-22.6 22.6 75.3 75.3c3.1 3.1 7.2 4.7 11.3 4.7s8.2-1.6 11.3-4.7l139.3-139.3-22.6-22.6z"></path>
</svg>
