<!-- Generated by IcoMoon.io -->
<svg version="1.1" xmlns="http://www.w3.org/2000/svg" width="768" height="768" viewBox="0 0 768 768">
<title></title>
<g id="icomoon-ignore">
</g>
<path d="M576 320v-64c0-51.3-20-99.5-56.2-135.8s-84.5-56.2-135.8-56.2-99.5 20-135.8 56.2-56.2 84.5-56.2 135.8v64c-35.3 0-64 28.7-64 64v256c0 35.3 28.7 64 64 64h384c35.3 0 64-28.7 64-64v-256c0-35.3-28.7-64-64-64zM256 256c0-70.6 57.4-128 128-128s128 57.4 128 128v64h-256v-64zM576 640h-384v-256h384v256c0.1 0 0 0 0 0z"></path>
<path d="M288 480c-17.6 0-32 14.4-32 32s14.4 32 32 32 32-14.4 32-32-14.4-32-32-32zM288 512c0 0 0 0 0 0v0z"></path>
<path d="M384 480c-17.6 0-32 14.4-32 32s14.4 32 32 32c17.6 0 32-14.4 32-32s-14.4-32-32-32zM384 512c0 0 0 0 0 0v0z"></path>
<path d="M480 480c-17.6 0-32 14.4-32 32s14.4 32 32 32 32-14.4 32-32-14.4-32-32-32zM480 512c0 0 0 0 0 0v0z"></path>
</svg>
