<!-- Generated by IcoMoon.io -->
<svg version="1.1" xmlns="http://www.w3.org/2000/svg" width="768" height="768" viewBox="0 0 768 768">
<title></title>
<g id="icomoon-ignore">
</g>
<path d="M758.6 329.4l-96-96c-7.3-7.3-17.5-10.6-27.7-9-10.1 1.6-18.9 8-23.5 17.1-70.5 139.3-132.4 230.8-200.5 296.6-0.1 0.1-0.3 0.3-0.4 0.4-24.2 24.2-56.3 37.5-90.5 37.5s-66.3-13.3-90.5-37.5c-24.2-24.2-37.5-56.3-37.5-90.5s13.3-66.3 37.5-90.5c0.1-0.1 0.3-0.3 0.4-0.4 65.8-68.2 157.2-130 296.6-200.5 9.2-4.6 15.5-13.4 17.1-23.5s-1.7-20.4-9-27.7l-96-96c-9.7-9.7-24.5-12.1-36.9-6-54.5 27-107.4 58.5-157.3 93.6-52.2 36.7-102.7 78.5-150.2 124.3-0.1 0.1-0.3 0.3-0.4 0.4-60.5 60.5-93.8 140.8-93.8 226.3s33.3 165.8 93.7 226.3c60.5 60.4 140.8 93.7 226.3 93.7s165.8-33.3 226.3-93.7c0.1-0.1 0.3-0.3 0.4-0.4 45.8-47.5 87.6-98.1 124.3-150.2 35.1-49.9 66.6-102.8 93.7-157.4 6.1-12.4 3.6-27.2-6.1-36.9zM409.8 71.1l48.6 48.6c-28.5 15.1-55 29.9-79.6 44.5l-48-48c25.7-16 52-31.1 79-45.1zM500.8 629.2c-48.3 48.2-112.5 74.8-180.8 74.8-68.4 0-132.7-26.6-181-75-99.7-99.7-99.8-262-0.2-361.8 52.4-50.5 106.9-94.6 164.6-133.2l47.3 47.3c-69.1 43.3-122.8 85.7-166.7 131.1-36.1 36.2-56 84.4-56 135.6 0 51.3 20 99.5 56.2 135.8 36.3 36.2 84.5 56.2 135.8 56.2 51.2 0 99.3-19.9 135.6-56 45.4-43.9 87.9-97.6 131.1-166.7l47.3 47.3c-38.6 57.7-82.7 112.2-133.2 164.6zM651.8 437.1l-47.9-47.9c14.6-24.6 29.4-51.1 44.5-79.6l48.6 48.6c-14.1 27-29.2 53.3-45.2 78.9z"></path>
</svg>
