<!-- Generated by IcoMoon.io -->
<svg version="1.1" xmlns="http://www.w3.org/2000/svg" width="768" height="768" viewBox="0 0 768 768">
<title>mailbox-full</title>
<path d="M592 160h-304v-32h48c8.8 0 16-7.2 16-16v-96c0-8.8-7.2-16-16-16h-128c-8.8 0-16 7.2-16 16v144h-98.7c-6.6-18.6-24.4-32-45.3-32-26.5 0-48 21.5-48 48v448c0 8.8 7.2 16 16 16h64c8.8 0 16-7.2 16-16v-16h192v144c0 8.8 7.2 16 16 16h160c8.8 0 16-7.2 16-16v-144h224c35.3 0 64-28.7 64-64v-208c0-97-79-176-176-176zM64 608h-32v-432c0-8.8 7.2-16 16-16s16 7.2 16 16v432zM288 352v96h-96v-96h96zM320 32v64h-48c-8.8 0-16 7.2-16 16v208h-32v-288h96zM416 736h-64v-128h64v128zM704 544h-608v-320h96v96h-16c-8.8 0-16 7.2-16 16v128c0 8.8 7.2 16 16 16h128c8.8 0 16-7.2 16-16v-128c0-8.8-7.2-16-16-16h-16v-96h304c61.8 0 112 50.2 112 112v208z"></path>
</svg>
