<!-- Generated by IcoMoon.io -->
<svg version="1.1" xmlns="http://www.w3.org/2000/svg" width="768" height="768" viewBox="0 0 768 768">
<title>network2</title>
<path d="M736 416v-64h-320v-96h48c8.8 0 16-7.2 16-16v-160c0-8.8-7.2-16-16-16h-160c-8.8 0-16 7.2-16 16v160c0 8.8 7.2 16 16 16h48v96h-320v64h128v96h-48c-8.8 0-16 7.2-16 16v160c0 8.8 7.2 16 16 16h160c8.8 0 16-7.2 16-16v-160c0-8.8-7.2-16-16-16h-48v-96h320v96h-48c-8.8 0-16 7.2-16 16v160c0 8.8 7.2 16 16 16h160c8.8 0 16-7.2 16-16v-160c0-8.8-7.2-16-16-16h-48v-96h128zM320 96h128v128h-128v-128zM256 672h-128v-128h128v128zM640 672h-128v-128h128v128z"></path>
</svg>
