<!-- Generated by IcoMoon.io -->
<svg version="1.1" xmlns="http://www.w3.org/2000/svg" width="768" height="768" viewBox="0 0 768 768">
<title></title>
<g id="icomoon-ignore">
</g>
<path d="M192 128h544v64h-544v-64z"></path>
<path d="M192 352h544v64h-544v-64z"></path>
<path d="M192 576h544v64h-544v-64z"></path>
<path d="M64 118.6v105.4h32v-144c0-6.5-3.9-12.3-9.9-14.8s-12.9-1.1-17.4 3.5l-43.3 43.3 22.6 22.6 16-16z"></path>
<path d="M128 336c0-14.4-5.5-27.2-15.4-36-8.7-7.7-20.3-12-32.6-12s-23.9 4.3-32.6 12.1c-9.9 8.8-15.4 21.6-15.4 36v16h32v-16c0-15.3 13.3-16 16-16 4.4 0 8.5 1.4 11.4 4 3.1 2.7 4.6 6.8 4.6 12.1 0 19.6-10.9 28.8-28.7 42.2-15.7 11.6-35.3 26.2-35.3 53.6 0 8.8 7.2 16 16 16h80v-32h-56.5c3.7-3.7 8.7-7.5 14.9-12.2 17.6-13.2 41.6-31.2 41.6-67.8z"></path>
<path d="M94.4 578.2l30.4-40.6c3.6-4.8 4.2-11.3 1.5-16.8-2.7-5.4-8.3-8.8-14.3-8.8h-80v32h48l-28.8 38.4c-3.6 4.8-4.2 11.3-1.5 16.8 2.7 5.4 8.3 8.8 14.3 8.8h16c8.8 0 16 7.2 16 16s-7.2 16-16 16h-48v32h48c26.5 0 48-21.5 48-48 0-21.5-14.2-39.7-33.6-45.8z"></path>
</svg>
