<!-- Generated by IcoMoon.io -->
<svg version="1.1" xmlns="http://www.w3.org/2000/svg" width="768" height="768" viewBox="0 0 768 768">
<title></title>
<g id="icomoon-ignore">
</g>
<path d="M757 39.8c-9.5-8.2-22.8-10.2-34.2-5l-704 320c-12.3 5.6-19.7 18.2-18.7 31.6s10.2 24.7 23.1 28.4l200.8 57.3v231.9c0 14.1 9.2 26.5 22.7 30.6 3.1 0.9 6.2 1.4 9.3 1.4 10.5 0 20.6-5.2 26.6-14.3l112.4-168.4 166.7 83.4c8.5 4.2 18.4 4.5 27.1 0.7s15.3-11.2 17.9-20.3l160-544c3.5-12.1-0.3-25.1-9.7-33.3zM124.4 377.1l450.5-204.8-307.3 245.9c-0.9-0.4-1.9-0.7-2.8-1l-140.4-40.1zM288 598.3v-150.3c0-1.6-0.1-3.2-0.4-4.8l335.1-268.1-263.3 316.4c-0.7 0.9-1.4 1.8-2 2.7l-69.4 104.1zM556.1 562.3l-151.1-75.6 268-322.1-116.9 397.7z"></path>
</svg>
