<!-- Generated by IcoMoon.io -->
<svg version="1.1" xmlns="http://www.w3.org/2000/svg" width="768" height="768" viewBox="0 0 768 768">
<title></title>
<g id="icomoon-ignore">
</g>
<path d="M725.5 42.5c-27.4-27.4-63.8-42.5-102.6-42.5s-75.2 15.1-102.6 42.5l-446.9 446.9c-3.8 3.8-6.6 8.6-8.1 13.8l-64 224c-3.2 11.2-0.1 23.2 8.1 31.4 6.1 6.1 14.3 9.4 22.6 9.4 2.9 0 5.9-0.4 8.8-1.2l224-64c5.2-1.5 10-4.3 13.8-8.1l446.9-446.9c56.6-56.7 56.6-148.7 0-205.3zM145.9 507.3l345.4-345.4 114.7 114.7-345.3 345.5-114.8-114.8zM513.9 139.3l25.4-25.4 114.7 114.7-25.4 25.4-114.7-114.7zM124 530.6l113.4 113.4-158.8 45.4 45.4-158.8zM680.3 202.5l-3.6 3.6-114.8-114.8 3.6-3.6c15.4-15.3 35.7-23.7 57.4-23.7s42 8.4 57.4 23.8c31.6 31.6 31.6 83 0 114.7z"></path>
</svg>
