<!-- Generated by IcoMoon.io -->
<svg version="1.1" xmlns="http://www.w3.org/2000/svg" width="768" height="768" viewBox="0 0 768 768">
<title>planet</title>
<path d="M763.2 151.8c-11.3-20.9-39.1-28.1-82.6-21.4-30 4.6-68.1 15.9-111.4 32.9-51.9-43.5-116.7-67.3-185.2-67.3-76.9 0-149.3 30-203.6 84.4s-84.4 126.7-84.4 203.6c0 23 2.7 45.5 7.9 67.3-33.4 30.2-59.8 58.4-77.3 82.6-25.5 35.3-32.6 62.2-21.8 82.3 3.8 7.1 12 16.5 28.9 21 7.2 1.9 15.5 2.8 24.5 2.8 40.3 0 95.1-17.6 137.6-34 1.1-0.4 2.1-0.8 3.2-1.2 51.7 43.4 116.5 67.2 185 67.2 76.9 0 149.3-30 203.6-84.4 54.4-54.3 84.4-126.7 84.4-203.6 0-23-2.7-45.5-7.9-67.3 7.5-6.8 14.7-13.5 21.6-20.2 30.3-29.3 52.6-55.7 66.2-78.2 16.6-27.3 20.3-49.7 11.3-66.5zM384 160c104.4 0 192.3 71.8 217.1 168.6-51.3 41.9-112.9 85.3-179.6 126.3-67.3 41.4-129.5 74.1-183.8 98.6-47.6-41.1-77.7-101.9-77.7-169.5 0-123.5 100.5-224 224-224zM42 606.2c-3.3-0.9-7.5-2.5-9-5.3-3-5.6 0.3-21.6 19.5-48.2 14.3-19.7 35.3-42.7 61.7-67.4 13.1 34.8 32.9 67 58.9 94.9-63 23.4-109.2 31.9-131.1 26zM608 384c0 123.5-100.5 224-224 224-42.7 0-82.7-12-116.7-32.9 54.2-25.4 112.2-56.9 170.9-93 61.8-38 119.5-78.2 169-117.4 0.5 6.4 0.8 12.8 0.8 19.3zM663.4 273.5c-3.2 3.1-6.4 6.1-9.7 9.2-13.1-34.9-32.9-67-59-94.9 35.2-13.1 66.1-21.9 90.6-25.7 32-4.9 46.7-0.4 49.6 5 4.7 8.4-4.4 41.5-71.5 106.4z"></path>
</svg>
