<!-- Generated by IcoMoon.io -->
<svg version="1.1" xmlns="http://www.w3.org/2000/svg" width="768" height="768" viewBox="0 0 768 768">
<title></title>
<g id="icomoon-ignore">
</g>
<path d="M640 160c0-35.3-28.7-64-64-64 0-35.3-28.7-64-64-64h-256c-35.3 0-64 28.7-64 64-35.3 0-64 28.7-64 64-35.3 0-64 28.7-64 64v448c0 35.3 28.7 64 64 64h512c35.3 0 64-28.7 64-64v-448c0-35.3-28.7-64-64-64zM256 64h256c17.6 0 32 14.4 32 32h-320c0-17.6 14.4-32 32-32zM192 128h384c17.6 0 32 14.4 32 32h-448c0-17.6 14.4-32 32-32zM640 672h-512v-448h512v448c0.1 0 0 0 0 0z"></path>
<path d="M504.1 434.2l-192-112c-4.9-2.9-11.1-2.9-16-0.1-5 2.9-8 8.1-8 13.9v224c0 5.7 3.1 11 8 13.9 2.5 1.4 5.2 2.1 8 2.1s5.6-0.7 8.1-2.2l192-112c4.9-2.9 7.9-8.1 7.9-13.8s-3.1-11-8-13.8zM320 532.1v-168.2l144.2 84.1-144.2 84.1z"></path>
</svg>
