<!-- Generated by IcoMoon.io -->
<svg version="1.1" xmlns="http://www.w3.org/2000/svg" width="768" height="768" viewBox="0 0 768 768">
<title></title>
<g id="icomoon-ignore">
</g>
<path d="M704 288h-160v-160c0-35.3-28.7-64-64-64h-192c-35.3 0-64 28.7-64 64v64h-160c-35.3 0-64 28.7-64 64v416c0 17.7 14.3 32 32 32h704c17.7 0 32-14.3 32-32v-320c0-35.3-28.7-64-64-64zM480 128v512h-192v-512h192zM64 256h160v384h-160v-384zM704 640h-160v-288h160v288z"></path>
<path d="M150.5 403.8c17.5-13.2 41.5-31.2 41.5-67.8 0-14.4-5.5-27.2-15.4-36-8.7-7.8-20.3-12.1-32.6-12.1s-23.9 4.3-32.6 12.1c-9.9 8.8-15.4 21.6-15.4 36v16h32v-16c0-15.3 13.3-16 16-16 4.4 0 8.5 1.4 11.4 4 3.1 2.7 4.6 6.8 4.6 12.1 0 19.6-10.9 28.8-28.7 42.2-15.7 11.7-35.3 26.3-35.3 53.7 0 8.8 7.2 16 16 16h80v-32h-56.5c3.7-3.7 8.7-7.5 15-12.2z"></path>
<path d="M624 512h-48v32h48c26.5 0 48-21.5 48-48 0-21.5-14.2-39.7-33.6-45.8l30.4-40.6c3.6-4.8 4.2-11.3 1.5-16.8-2.7-5.4-8.3-8.8-14.3-8.8h-80v32h48l-28.8 38.4c-3.6 4.8-4.2 11.3-1.5 16.8 2.7 5.4 8.3 8.8 14.3 8.8h16c8.8 0 16 7.2 16 16s-7.2 16-16 16z"></path>
<path d="M384 214.6v105.4h32v-144c0-6.5-3.9-12.3-9.9-14.8s-12.9-1.1-17.4 3.5l-43.3 43.3 22.6 22.6 16-16z"></path>
</svg>
