<!-- Generated by IcoMoon.io -->
<svg version="1.1" xmlns="http://www.w3.org/2000/svg" width="768" height="768" viewBox="0 0 768 768">
<title>robot</title>
<path d="M768 352v-160c0-35.3-28.7-64-64-64v-32c0-35.3-28.7-64-64-64h-512c-35.3 0-64 28.7-64 64v32c-35.3 0-64 28.7-64 64v160c0 35.3 28.7 64 64 64v96c-35.3 0-64 28.7-64 64v144c0 8.8 7.2 16 16 16h736c8.8 0 16-7.2 16-16v-144c0-35.3-28.7-64-64-64v-96c35.3 0 64-28.7 64-64zM736 192v160c0 17.6-14.4 32-32 32v-224c17.6 0 32 14.4 32 32zM32 352v-160c0-17.6 14.4-32 32-32v224c-17.6 0-32-14.4-32-32zM64 704v-128h640v128h-640zM128 512v-416h512v416h-512z"></path>
<path d="M352 224c0-52.9-43.1-96-96-96s-96 43.1-96 96 43.1 96 96 96 96-43.1 96-96zM192 224c0-35.3 28.7-64 64-64s64 28.7 64 64-28.7 64-64 64-64-28.7-64-64z"></path>
<path d="M512 128c-52.9 0-96 43.1-96 96s43.1 96 96 96 96-43.1 96-96-43.1-96-96-96zM512 288c-35.3 0-64-28.7-64-64s28.7-64 64-64 64 28.7 64 64-28.7 64-64 64z"></path>
<path d="M224 384h320v64h-320v-64z"></path>
</svg>
