<!-- Generated by IcoMoon.io -->
<svg version="1.1" xmlns="http://www.w3.org/2000/svg" width="768" height="768" viewBox="0 0 768 768">
<title>rocket</title>
<path d="M736 0c-8.4 0-206.5 1.2-310.6 105.4-0.8 0.8-1.6 1.7-2.4 2.6l-92.8 116h-138.2c-10.3 0-20 5-26 13.4l-160 224c-7.6 10.7-8 24.9-0.8 36 6 9.2 16.2 14.6 26.9 14.6 2.1 0 4.2-0.2 6.3-0.6l143.2-28.6 103.8 103.8-28.6 143.2c-2.6 12.9 3 26 14 33.1 5.3 3.4 11.3 5.1 17.4 5.1 6.5 0 13-2 18.6-6l224-160c8.4-6 13.4-15.7 13.4-26v-138.2l115.8-92.8c0.9-0.7 1.8-1.5 2.6-2.4 104.2-104.1 105.4-302.2 105.4-310.6 0-17.7-14.3-32-32-32zM208.5 288h70.5l-104.7 130.9-69.2 13.8 103.4-144.7zM275.8 394.4l97.7 97.7-51.2 40.9-87.5-87.5 41-51.1zM480 559.5l-144.8 103.4 13.8-69.2 131-104.7v70.5zM618.6 296.2l-219.9 175.9-102.8-102.8 175.9-219.9c62.8-61.6 174.4-78.8 230.3-83.6-4.7 55.9-21.9 167.5-83.5 230.4z"></path>
<path d="M576 256c35.3 0 64-28.7 64-64s-28.7-64-64-64-64 28.7-64 64 28.7 64 64 64zM576 160c17.6 0 32 14.4 32 32s-14.4 32-32 32-32-14.4-32-32 14.4-32 32-32z"></path>
<path d="M144 544c-74.5 0-126.7 72.6-143.5 140.1-1.6 6.4 0.9 13.1 6.2 16.9s12.5 4 18 0.5c14.3-9.2 26.6-16.3 37-21.4-3.9 21.6-12.8 42.3-26.9 62.9-3.8 5.6-3.7 13 0.3 18.5 3.1 4.2 7.9 6.5 12.9 6.5 1.5 0 3.1-0.2 4.6-0.7 1.7-0.5 42.1-12.7 83.1-35.3 58.6-32.2 88.3-68.6 88.3-108 0-44.1-35.9-80-80-80zM120.7 703.7c-13.3 7.3-26.6 13.5-38.4 18.5 8.8-21.4 13.4-43.5 13.7-66 0.1-4.9-2.1-9.6-6-12.7-2.9-2.3-6.4-3.5-10-3.5-1.2 0-2.5 0.1-3.7 0.4-8.7 2.1-18.6 5.9-30.1 11.6 7.6-15.5 17.1-29.7 27.7-41.2 14.5-15.9 38.4-34.8 70.1-34.8 26.5 0 48 21.5 48 48 0 33.4-38.8 61.8-71.3 79.7z"></path>
</svg>
