<!-- Generated by IcoMoon.io -->
<svg version="1.1" xmlns="http://www.w3.org/2000/svg" width="768" height="768" viewBox="0 0 768 768">
<title>satellite</title>
<path d="M763.3 644.7l-192-192c-3-3-7.1-4.7-11.3-4.7h-25.4l-20.7-20.7 75.1-75.1c0 0 0 0 0 0 25-25 25-65.6 0-90.5l-82.7-82.7c-12.1-12.1-28.2-18.7-45.3-18.7s-33.2 6.7-45.3 18.7l-75.1 75.1-20.6-20.7v-25.4c0-4.2-1.7-8.3-4.7-11.3l-192-192c-6.2-6.2-16.4-6.2-22.6 0l-96 96c-6.2 6.2-6.2 16.4 0 22.6l192 192c3 3 7.1 4.7 11.3 4.7h25.4l20.7 20.7-11.1 11c-12.1 12.1-18.7 28.2-18.7 45.3s6.7 33.2 18.7 45.3l82.7 82.7c12.5 12.5 28.9 18.7 45.3 18.7s32.8-6.2 45.3-18.7l11.1-11.1 20.7 20.7v25.4c0 4.2 1.7 8.3 4.7 11.3l192 192c3.1 3.1 7.2 4.7 11.3 4.7s8.2-1.6 11.3-4.7l96-96c6.2-6.2 6.2-16.4-0.1-22.6zM251.3 292.7c-3-3-7.1-4.7-11.3-4.7h-25.4l-176-176 73.4-73.4 176 176v25.4c0 4.2 1.7 8.3 4.7 11.3l25.4 25.4-41.4 41.4-25.4-25.4zM288.3 397l172.7-172.7 82.8 82.7c0 0 0 0 0 0v0l-172.8 172.7-82.7-82.7zM656 729.4l-176-176v-25.4c0-4.2-1.7-8.3-4.7-11.3l-25.4-25.4 41.4-41.4 25.4 25.4c3 3 7.1 4.7 11.3 4.7h25.4l176 176-73.4 73.4z"></path>
<path d="M32 496v-16h-32v16c0 72.7 28.3 141 79.7 192.3s119.6 79.7 192.3 79.7h16v-32h-16c-132.3 0-240-107.7-240-240z"></path>
<path d="M128 496v-16h-32v16c0 97 79 176 176 176h16v-32h-16c-79.4 0-144-64.6-144-144z"></path>
<path d="M224 496v-16h-32v16c0 44.1 35.9 80 80 80h16v-32h-16c-26.5 0-48-21.5-48-48z"></path>
</svg>
