<!-- Generated by IcoMoon.io -->
<svg version="1.1" xmlns="http://www.w3.org/2000/svg" width="768" height="768" viewBox="0 0 768 768">
<title>satellite-dish</title>
<path d="M699.3 548.7l-59.3-59.3v-302.8l45.3-45.3c24.9-24.9 24.9-65.5 0-90.5-24.9-24.9-65.5-24.9-90.5 0l-45.2 45.2h-303l-59.3-59.3c-6.2-6.2-16.4-6.2-22.6 0v0 0l-11.3 11.3c-29 29-47.3 64.2-54.3 104.6-6.2 36-3.3 75.5 8.8 117.2 14 48.2 39.7 98.2 74.7 145.9l-116.1 275.9c-4.2 9.9-3.1 21.2 2.8 30.1 6 8.9 16 14.3 26.7 14.3h320c10.9 0 21.1-5.6 27-14.8s6.7-20.7 2.1-30.7l-39.7-85.9c20.4 9.7 40.8 17.6 60.9 23.4 27.6 8 54.2 12 79.4 12 13 0 25.6-1.1 37.8-3.2 40.4-7 75.6-25.2 104.6-54.3l11.3-11.3c6.2-6.1 6.2-16.3-0.1-22.5zM198.6 93.2l444.1 444.1c-8.8 8.8-18.4 16.2-28.8 22l-437.3-437.3c5.9-10.3 13.2-19.9 22-28.8zM454.6 304l88.8-88.8c10 5.9 21.3 8.8 32.5 8.8 11.1 0 22.1-2.8 32-8.5v241.9l-153.3-153.4zM617.4 73.4c12.5-12.5 32.9-12.5 45.3-0.1 12.5 12.5 12.5 32.9 0 45.3l-64 64c-12.5 12.5-32.9 12.5-45.3 0.1-12.5-12.5-12.5-32.9 0-45.3l64-64zM520.6 128c-11.5 19.9-11.4 44.6 0.3 64.5l-88.9 88.9-153.4-153.4h242zM380.8 704h-250l98-232.7c5.7 6.2 11.6 12.3 17.7 18.3 19.3 19.3 39.4 37 60 53.1l74.3 161.3zM484 566.6c-62.8-18.2-133-62.7-192.4-122.2-59.5-59.5-104-129.6-122.2-192.4-10.6-36.5-12.4-69.1-5.5-97.4l417.6 417.6c-11.2 2.7-23 4.1-35.5 4.1-19.2-0.1-39.8-3.3-62-9.7z"></path>
</svg>
