<!-- Generated by IcoMoon.io -->
<svg version="1.1" xmlns="http://www.w3.org/2000/svg" width="768" height="768" viewBox="0 0 768 768">
<title></title>
<g id="icomoon-ignore">
</g>
<path d="M190.1 488.5c-2.8-5.2-8.2-8.5-14.1-8.5h-144v32h114.1l-111.4 167.1c-3.3 4.9-3.6 11.2-0.8 16.4s8.2 8.5 14.1 8.5h144v-32h-114.1l111.4-167.1c3.3-4.9 3.6-11.2 0.8-16.4z"></path>
<path d="M112 64c-6.9 0-13 4.4-15.2 10.9l-69 207.2 30.4 10.1 22.7-68.2h62.3l22.7 68.2 30.4-10.1-69.1-207.2c-2.2-6.5-8.3-10.9-15.2-10.9zM91.5 192l20.5-61.4 20.5 61.4h-41z"></path>
<path d="M689.4 545.4l-113.4 113.3v-658.7h-64v658.7l-113.4-113.3-45.3 45.3 168 168c6.2 6.2 14.4 9.4 22.6 9.4s16.4-3.1 22.6-9.4l168-168-45.1-45.3z"></path>
</svg>
