<!-- Generated by IcoMoon.io -->
<svg version="1.1" xmlns="http://www.w3.org/2000/svg" width="768" height="768" viewBox="0 0 768 768">
<title></title>
<g id="icomoon-ignore">
</g>
<path d="M721.4 545.4l-113.4 113.3v-658.7h-64v658.7l-113.4-113.3-45.3 45.3 168 168c6.2 6.2 14.4 9.4 22.6 9.4s16.4-3.1 22.6-9.4l168-168-45.1-45.3z"></path>
<path d="M272 576h-256c-8.8 0-16 7.2-16 16v64c0 8.8 7.2 16 16 16h256c8.8 0 16-7.2 16-16v-64c0-8.8-7.2-16-16-16zM256 640h-224v-32h224v32z"></path>
<path d="M272 416h-192c-8.8 0-16 7.2-16 16v64c0 8.8 7.2 16 16 16h192c8.8 0 16-7.2 16-16v-64c0-8.8-7.2-16-16-16zM256 480h-160v-32h160v32z"></path>
<path d="M272 256h-128c-8.8 0-16 7.2-16 16v64c0 8.8 7.2 16 16 16h128c8.8 0 16-7.2 16-16v-64c0-8.8-7.2-16-16-16zM256 320h-96v-32h96v32z"></path>
<path d="M272 96h-96c-8.8 0-16 7.2-16 16v64c0 8.8 7.2 16 16 16h96c8.8 0 16-7.2 16-16v-64c0-8.8-7.2-16-16-16zM256 160h-64v-32h64v32z"></path>
</svg>
