<!-- Generated by IcoMoon.io -->
<svg version="1.1" xmlns="http://www.w3.org/2000/svg" width="768" height="768" viewBox="0 0 768 768">
<title></title>
<g id="icomoon-ignore">
</g>
<path d="M767 312c-3.1-12-12.8-21.1-25-23.4l-231.1-44.3-97.5-225c-5.1-11.7-16.6-19.3-29.4-19.3s-24.3 7.6-29.4 19.3l-97.5 225-231.1 44.3c-12.2 2.3-21.9 11.4-25 23.4s1 24.7 10.5 32.6l176.6 147.1-59.1 236.5c-3.1 12.4 1.5 25.5 11.7 33.3 10.2 7.7 24.1 8.6 35.2 2.3l208.1-118.9 208.1 118.9c4.9 2.8 10.4 4.2 15.9 4.2 6.8 0 13.6-2.2 19.3-6.5 10.2-7.7 14.8-20.8 11.7-33.3l-59.1-236.5 176.6-147.1c9.5-7.9 13.6-20.6 10.5-32.6zM523.5 455.4c-9.4 7.9-13.5 20.4-10.6 32.3l45.9 183.3-158.9-90.8c-4.9-2.8-10.4-4.2-15.9-4.2s-11 1.4-15.9 4.2l-158.9 90.8 45.8-183.2c3-11.9-1.1-24.5-10.6-32.3l-140-116.8 181.3-34.8c10.4-2 19.1-9 23.3-18.7l75-172.7 74.9 172.8c4.2 9.7 12.9 16.7 23.3 18.7l181.3 34.8-140 116.6z"></path>
</svg>
