<!-- Generated by IcoMoon.io -->
<svg version="1.1" xmlns="http://www.w3.org/2000/svg" width="768" height="768" viewBox="0 0 768 768">
<title></title>
<g id="icomoon-ignore">
</g>
<path d="M672 320c0-17-4.5-33.6-12.9-48 8.3-14.4 12.9-31 12.9-48 0-29-13.1-55.9-34.6-73.8 1.7-7.2 2.6-14.7 2.6-22.2 0-52.9-43.1-96-96-96h-86.9c-92.2 0-184.4 22.7-266.5 65.5 0 0-0.1 0-0.1 0.1-58.3 30.7-94.5 91-94.5 157.5v112.1c0 27.3 6.3 54.6 18.3 79 12.1 24.6 29.9 46.2 51.5 62.7 29.7 22.6 58 37 85.3 50.8 52.2 26.5 93.5 47.5 129.9 119.1 7.5 18.8 19.6 34 35.4 44.3 17 11.1 36.7 15.2 55.7 11.6 22.1-4.2 41.2-18.4 53.9-40.1 12.2-20.9 18.2-48.1 17.8-80.6 0-30.8-7.1-68.7-24.7-102h57c52.9 0 96-43.1 96-96 0-17-4.5-33.6-12.9-48 8.3-14.4 12.8-31 12.8-48zM544 160h-64v32h96c5 0 9.7 1.1 14.1 3.3 10.9 5.3 17.9 16.4 17.9 28.7 0 7.9-2.9 15.5-8.1 21.3-6.1 6.8-14.7 10.6-23.8 10.7 0 0-0.1 0-0.1 0h-64v32h64c0 0 0.1 0 0.1 0 7.8 0 15.3 2.9 21.1 8 6.9 6.1 10.8 14.8 10.8 24s-3.9 17.9-10.8 24c-5.8 5.1-13.3 8-21.2 8h-64v32h64c9.1 0 17.8 3.9 23.9 10.7 5.2 5.8 8.1 13.4 8.1 21.3 0 17.6-14.4 32-32 32h-128c-14.4 0-27 9.6-30.8 23.5s2 28.6 14.4 36c33.1 19.9 48.2 69.3 48.2 106.8 0 0.1 0 0.3 0 0.4 0.5 39.2-11.4 55.7-19.5 57.3-6.1 1.1-15.1-4.5-20-17.4-0.4-1.1-0.8-2.1-1.4-3.1-46-91.5-103.3-120.6-158.8-148.8-24.8-12.6-50.4-25.6-75.5-44.7-27.9-21.2-44.6-55.1-44.6-90.7v-112.2c0-42.6 23.1-81.3 60.2-100.8 73-38.1 154.9-58.3 236.9-58.3h86.9c17.6 0 32 14.4 32 32 0 5.5-1.4 10.8-3.9 15.5-5.7 10.2-16.5 16.5-28.1 16.5z"></path>
</svg>
