<!-- Generated by IcoMoon.io -->
<svg version="1.1" xmlns="http://www.w3.org/2000/svg" width="768" height="768" viewBox="0 0 768 768">
<title></title>
<g id="icomoon-ignore">
</g>
<path d="M659.1 400c8.3-14.4 12.9-31 12.9-48 0-52.9-43.1-96-96-96h-57c17.6-33.3 24.7-71.2 24.7-102 0.4-32.6-5.6-59.7-17.8-80.6-12.6-21.7-31.7-36-53.9-40.1-18.9-3.6-38.7 0.6-55.7 11.6-15.7 10.2-27.9 25.5-35.4 44.3-36.4 71.6-77.7 92.6-129.9 119.1-27.3 13.9-55.5 28.2-85.3 50.8-21.7 16.5-39.5 38.1-51.5 62.7-12 24.4-18.3 51.7-18.3 79v112.1c0 66.5 36.2 126.8 94.5 157.5 0 0 0.1 0 0.1 0.1 82.1 42.9 174.3 65.5 266.5 65.5h87c52.9 0 96-43.1 96-96 0-7.6-0.9-15-2.6-22.2 21.5-17.9 34.6-44.8 34.6-73.8 0-17-4.5-33.6-12.9-48 8.3-14.4 12.9-31 12.9-48s-4.5-33.6-12.9-48zM572.1 624.5c2.6 4.7 3.9 10 3.9 15.5 0 17.6-14.4 32-32 32h-86.9c-81.9 0-163.8-20.1-236.9-58.3-37.2-19.6-60.2-58.2-60.2-100.8v-112.1c0-35.6 16.7-69.5 44.6-90.7 25.2-19.1 50.8-32.1 75.5-44.7 55.4-28.2 112.7-57.3 158.8-148.8 0.5-1 1-2 1.4-3.1 4.8-12.8 13.9-18.5 20-17.4 8.1 1.5 20 18 19.5 57.3 0 0.1 0 0.3 0 0.4 0 37.5-15.1 86.9-48.2 106.8-12.3 7.4-18.2 22.1-14.4 36 3.8 13.8 16.4 23.4 30.8 23.4h128c17.6 0 32 14.4 32 32 0 7.9-2.9 15.5-8.1 21.3-6.1 6.8-14.8 10.7-23.9 10.7h-64v32h64c7.8 0 15.4 2.9 21.2 8 6.9 6.1 10.8 14.8 10.8 24s-3.9 17.9-10.8 24c-5.8 5.1-13.3 8-21.1 8 0 0-0.1 0-0.1 0v0h-64v32h64c0 0 0.1 0 0.1 0 9 0 17.7 3.9 23.8 10.7 5.2 5.8 8.1 13.4 8.1 21.3 0 12.3-7 23.4-17.9 28.7-4.4 2.2-9.2 3.3-14.1 3.3h-96v32h64c11.6 0 22.4 6.3 28.1 16.5z"></path>
</svg>
