<!-- Generated by IcoMoon.io -->
<svg version="1.1" xmlns="http://www.w3.org/2000/svg" width="768" height="768" viewBox="0 0 768 768">
<title></title>
<g id="icomoon-ignore">
</g>
<path d="M758.6 297.4l-87.4-87.4c-12.5-12.5-32.8-12.5-45.3 0-9 9-21.1 14-33.9 14s-24.9-5-33.9-14.1c-18.7-18.7-18.7-49.2 0-67.9 12.5-12.5 12.5-32.8 0-45.3l-87.5-87.3c-6-6-14.1-9.4-22.6-9.4s-16.6 3.4-22.6 9.4l-416 416c-12.5 12.5-12.5 32.8 0 45.3l87.4 87.4c6 6 14.1 9.4 22.6 9.4s16.6-3.4 22.6-9.4c9.1-9.1 21.1-14.1 33.9-14.1s24.9 5 33.9 14.1 14.2 21.1 14.2 33.9c0 12.8-5 24.9-14.1 33.9-6 6-9.4 14.1-9.4 22.6s3.4 16.6 9.4 22.6l87.4 87.4c6.2 6.2 14.4 9.4 22.6 9.4s16.4-3.1 22.6-9.4l416-416c12.6-12.4 12.6-32.6 0.1-45.1zM320 690.7l-45.5-45.5c22.9-42.4 16.5-96.7-19.3-132.5-21.2-21-49.3-32.7-79.2-32.7 0 0 0 0 0 0-18.9 0-37.1 4.7-53.3 13.4l-45.4-45.4 370.7-370.7 45.5 45.5c-22.9 42.4-16.5 96.7 19.3 132.5 21.8 21.8 50.5 32.8 79.2 32.8 18.4 0 36.7-4.5 53.3-13.4l45.5 45.5-370.8 370.5z"></path>
<path d="M411.3 196.7c-6.2-6.2-16.4-6.2-22.6 0l-192 192c-6.2 6.2-6.2 16.4 0 22.6l160 160c3.1 3.1 7.2 4.7 11.3 4.7s8.2-1.6 11.3-4.7l192-192c6.2-6.2 6.2-16.4 0-22.6l-160-160zM368 537.4l-137.4-137.4 169.4-169.4 137.4 137.4-169.4 169.4z"></path>
</svg>
