<!-- Generated by IcoMoon.io -->
<svg version="1.1" xmlns="http://www.w3.org/2000/svg" width="768" height="768" viewBox="0 0 768 768">
<title>tombstone</title>
<path d="M672 608h-56.1l87.8-396.5c0.8-3.7 0.3-7.6-1.5-11l-102.2-192c-2.8-5.2-8.2-8.5-14.1-8.5h-393.9c-11.7 0-22.5 6.4-28.1 16.7l-96 176c-3.7 6.8-4.8 14.7-3.1 22.3l87.3 393h-56.1c-35.3 0-64 28.7-64 64v80c0 8.8 7.2 16 16 16h672c8.8 0 16-7.2 16-16v-80c0-35.3-28.7-64-64-64zM519.9 608l85.3-384h62.8l-85 384h-63.1zM661.4 192h-57.6l-87.3-160h59.8l85.1 160zM129.8 212.8l81.2-148.8h250l81.2 148.8-87.9 395.2h-236.6l-87.9-395.2zM96 736v-64h576v64h-576z"></path>
<path d="M320 224h32v160h-32v-160z"></path>
<path d="M288 272c0-26.5-21.5-48-48-48h-32c-8.8 0-16 7.2-16 16v144h32v-64h6.1l34.8 69.5 28.6-14.3-30.5-61c14.9-8.2 25-24 25-42.2zM224 256h16c8.8 0 16 7.2 16 16s-7.2 16-16 16h-16v-32z"></path>
<path d="M480 272c0-26.5-21.5-48-48-48h-32c-8.8 0-16 7.2-16 16v144h32v-64h16c26.5 0 48-21.5 48-48zM416 256h16c8.8 0 16 7.2 16 16s-7.2 16-16 16h-16v-32z"></path>
</svg>
