<!-- Generated by IcoMoon.io -->
<svg version="1.1" xmlns="http://www.w3.org/2000/svg" width="768" height="768" viewBox="0 0 768 768">
<title></title>
<g id="icomoon-ignore">
</g>
<path d="M224 160h512v64h-512v-64z"></path>
<path d="M224 352h512v64h-512v-64z"></path>
<path d="M224 544h512v64h-512v-64z"></path>
<path d="M96 128c-35.3 0-64 28.7-64 64s28.7 64 64 64 64-28.7 64-64-28.7-64-64-64zM96 224c-17.6 0-32-14.4-32-32s14.4-32 32-32 32 14.4 32 32-14.4 32-32 32z"></path>
<path d="M96 320c-35.3 0-64 28.7-64 64s28.7 64 64 64 64-28.7 64-64c0-35.3-28.7-64-64-64zM96 416c-17.6 0-32-14.4-32-32s14.4-32 32-32 32 14.4 32 32c0 17.6-14.4 32-32 32z"></path>
<path d="M96 512c-35.3 0-64 28.7-64 64s28.7 64 64 64 64-28.7 64-64-28.7-64-64-64zM96 608c-17.6 0-32-14.4-32-32s14.4-32 32-32 32 14.4 32 32-14.4 32-32 32z"></path>
</svg>
