<!-- Generated by IcoMoon.io -->
<svg version="1.1" xmlns="http://www.w3.org/2000/svg" width="768" height="768" viewBox="0 0 768 768">
<title></title>
<g id="icomoon-ignore">
</g>
<path d="M384 448c105.9 0 192-86.1 192-192s-86.1-192-192-192-192 86.1-192 192 86.1 192 192 192zM384 128c70.6 0 128 57.4 128 128s-57.4 128-128 128c-70.6 0-128-57.4-128-128s57.4-128 128-128z"></path>
<path d="M630.7 546.2c-44.2-44.6-124.9-66.2-246.7-66.2s-202.5 21.6-246.7 66.2c-41.3 41.6-41.3 92.3-41.3 125.8v16c0 8.8 7.2 16 16 16h544c8.8 0 16-7.2 16-16v-16c0-33.5 0-84.2-41.3-125.8zM160 672c0-28.4 0-57.9 22.7-80.7 13.5-13.6 34.3-24.4 62-32.2 35.4-10 82.3-15.1 139.3-15.1s103.9 5.1 139.3 15.1c27.7 7.8 48.5 18.6 62 32.2 22.7 22.8 22.7 52.3 22.7 80.7h-448z"></path>
</svg>
