<!-- Generated by IcoMoon.io -->
<svg version="1.1" xmlns="http://www.w3.org/2000/svg" width="768" height="768" viewBox="0 0 768 768">
<title>warning</title>
<path d="M761.2 675.3l-320-639.9c-10.8-21.8-32.8-35.4-57.2-35.4-24.5 0-46.4 13.6-57.2 35.4l-320 639.9c-4.4 8.8-6.8 18.7-6.8 28.7 0 35.3 28.7 64 64 64h640c35.3 0 64-28.7 64-64 0-10-2.4-19.9-6.8-28.7zM64 704l320-640c0 0 0 0 0 0l320 640h-640zM704 704c0 0 0 0 0 0s0.1 0 0 0c0.1 0 0 0 0 0z"></path>
<path d="M369.7 164.1l-242.3 484.7c-2.5 5-2.2 10.8 0.7 15.6 2.9 4.7 8.1 7.6 13.6 7.6h146.3v-32h-120.4l216.4-432.9 216.4 432.9h-120.4v32h146.3c5.5 0 10.7-2.9 13.6-7.6s3.2-10.6 0.7-15.6l-242.3-484.7c-2.7-5.4-8.3-8.8-14.3-8.8-6.1 0-11.6 3.4-14.3 8.8z"></path>
<path d="M352 352h64v224h-64v-224z"></path>
<path d="M352 608h64v64h-64v-64z"></path>
</svg>
